%TF.GenerationSoftware,KiCad,Pcbnew,9.0.4*%
%TF.CreationDate,2025-10-04T23:27:53+02:00*%
%TF.ProjectId,zVMC_PCB,7a564d43-5f50-4434-922e-6b696361645f,rev?*%
%TF.SameCoordinates,Original*%
%TF.FileFunction,Legend,Top*%
%TF.FilePolarity,Positive*%
%FSLAX46Y46*%
G04 Gerber Fmt 4.6, Leading zero omitted, Abs format (unit mm)*
G04 Created by KiCad (PCBNEW 9.0.4) date 2025-10-04 23:27:53*
%MOMM*%
%LPD*%
G01*
G04 APERTURE LIST*
G04 Aperture macros list*
%AMRoundRect*
0 Rectangle with rounded corners*
0 $1 Rounding radius*
0 $2 $3 $4 $5 $6 $7 $8 $9 X,Y pos of 4 corners*
0 Add a 4 corners polygon primitive as box body*
4,1,4,$2,$3,$4,$5,$6,$7,$8,$9,$2,$3,0*
0 Add four circle primitives for the rounded corners*
1,1,$1+$1,$2,$3*
1,1,$1+$1,$4,$5*
1,1,$1+$1,$6,$7*
1,1,$1+$1,$8,$9*
0 Add four rect primitives between the rounded corners*
20,1,$1+$1,$2,$3,$4,$5,0*
20,1,$1+$1,$4,$5,$6,$7,0*
20,1,$1+$1,$6,$7,$8,$9,0*
20,1,$1+$1,$8,$9,$2,$3,0*%
G04 Aperture macros list end*
%ADD10C,0.250000*%
%ADD11C,0.150000*%
%ADD12C,0.254000*%
%ADD13C,0.120000*%
%ADD14C,0.127000*%
%ADD15C,0.200000*%
%ADD16C,0.100000*%
%ADD17RoundRect,0.250000X-0.250000X-0.475000X0.250000X-0.475000X0.250000X0.475000X-0.250000X0.475000X0*%
%ADD18RoundRect,0.250000X-0.262500X-0.450000X0.262500X-0.450000X0.262500X0.450000X-0.262500X0.450000X0*%
%ADD19RoundRect,0.250000X0.262500X0.450000X-0.262500X0.450000X-0.262500X-0.450000X0.262500X-0.450000X0*%
%ADD20RoundRect,0.243750X0.456250X-0.243750X0.456250X0.243750X-0.456250X0.243750X-0.456250X-0.243750X0*%
%ADD21RoundRect,0.102000X0.700000X-0.800000X0.700000X0.800000X-0.700000X0.800000X-0.700000X-0.800000X0*%
%ADD22C,2.500000*%
%ADD23RoundRect,0.150000X-0.150000X0.825000X-0.150000X-0.825000X0.150000X-0.825000X0.150000X0.825000X0*%
%ADD24RoundRect,0.250000X0.250000X0.475000X-0.250000X0.475000X-0.250000X-0.475000X0.250000X-0.475000X0*%
%ADD25RoundRect,0.250000X-0.475000X0.250000X-0.475000X-0.250000X0.475000X-0.250000X0.475000X0.250000X0*%
%ADD26RoundRect,0.150000X-0.587500X-0.150000X0.587500X-0.150000X0.587500X0.150000X-0.587500X0.150000X0*%
%ADD27RoundRect,0.250000X0.450000X-0.325000X0.450000X0.325000X-0.450000X0.325000X-0.450000X-0.325000X0*%
%ADD28RoundRect,0.250000X0.450000X-0.262500X0.450000X0.262500X-0.450000X0.262500X-0.450000X-0.262500X0*%
%ADD29R,1.250000X0.500000*%
%ADD30RoundRect,0.250000X-0.450000X0.262500X-0.450000X-0.262500X0.450000X-0.262500X0.450000X0.262500X0*%
%ADD31RoundRect,0.225000X-0.375000X0.225000X-0.375000X-0.225000X0.375000X-0.225000X0.375000X0.225000X0*%
%ADD32C,1.500000*%
%ADD33RoundRect,0.375000X0.625000X0.375000X-0.625000X0.375000X-0.625000X-0.375000X0.625000X-0.375000X0*%
%ADD34RoundRect,0.500000X0.500000X1.400000X-0.500000X1.400000X-0.500000X-1.400000X0.500000X-1.400000X0*%
%ADD35C,0.770000*%
%ADD36RoundRect,0.060000X-0.300000X-0.575000X0.300000X-0.575000X0.300000X0.575000X-0.300000X0.575000X0*%
%ADD37RoundRect,0.060000X-0.150000X-0.575000X0.150000X-0.575000X0.150000X0.575000X-0.150000X0.575000X0*%
%ADD38RoundRect,0.102000X-1.090000X-1.000000X1.090000X-1.000000X1.090000X1.000000X-1.090000X1.000000X0*%
%ADD39R,1.500000X0.900000*%
%ADD40R,0.800000X0.800000*%
G04 APERTURE END LIST*
D10*
X61188008Y-171664098D02*
X61188008Y-171035527D01*
X61188008Y-171035527D02*
X61854675Y-171664098D01*
X61854675Y-171664098D02*
X61854675Y-171035527D01*
X61854675Y-170578383D02*
X60854675Y-170578383D01*
X60854675Y-170578383D02*
X61568960Y-170178383D01*
X61568960Y-170178383D02*
X60854675Y-169778383D01*
X60854675Y-169778383D02*
X61854675Y-169778383D01*
X61854675Y-169035526D02*
X61807056Y-169149811D01*
X61807056Y-169149811D02*
X61759436Y-169206954D01*
X61759436Y-169206954D02*
X61664198Y-169264097D01*
X61664198Y-169264097D02*
X61378484Y-169264097D01*
X61378484Y-169264097D02*
X61283246Y-169206954D01*
X61283246Y-169206954D02*
X61235627Y-169149811D01*
X61235627Y-169149811D02*
X61188008Y-169035526D01*
X61188008Y-169035526D02*
X61188008Y-168864097D01*
X61188008Y-168864097D02*
X61235627Y-168749811D01*
X61235627Y-168749811D02*
X61283246Y-168692669D01*
X61283246Y-168692669D02*
X61378484Y-168635526D01*
X61378484Y-168635526D02*
X61664198Y-168635526D01*
X61664198Y-168635526D02*
X61759436Y-168692669D01*
X61759436Y-168692669D02*
X61807056Y-168749811D01*
X61807056Y-168749811D02*
X61854675Y-168864097D01*
X61854675Y-168864097D02*
X61854675Y-169035526D01*
X61854675Y-167606955D02*
X60854675Y-167606955D01*
X61807056Y-167606955D02*
X61854675Y-167721240D01*
X61854675Y-167721240D02*
X61854675Y-167949812D01*
X61854675Y-167949812D02*
X61807056Y-168064097D01*
X61807056Y-168064097D02*
X61759436Y-168121240D01*
X61759436Y-168121240D02*
X61664198Y-168178383D01*
X61664198Y-168178383D02*
X61378484Y-168178383D01*
X61378484Y-168178383D02*
X61283246Y-168121240D01*
X61283246Y-168121240D02*
X61235627Y-168064097D01*
X61235627Y-168064097D02*
X61188008Y-167949812D01*
X61188008Y-167949812D02*
X61188008Y-167721240D01*
X61188008Y-167721240D02*
X61235627Y-167606955D01*
X60854675Y-166292669D02*
X61854675Y-165892669D01*
X61854675Y-165892669D02*
X60854675Y-165492669D01*
X61854675Y-164464098D02*
X61854675Y-165149812D01*
X61854675Y-164806955D02*
X60854675Y-164806955D01*
X60854675Y-164806955D02*
X60997532Y-164921241D01*
X60997532Y-164921241D02*
X61092770Y-165035526D01*
X61092770Y-165035526D02*
X61140389Y-165149812D01*
X61759436Y-163949812D02*
X61807056Y-163892669D01*
X61807056Y-163892669D02*
X61854675Y-163949812D01*
X61854675Y-163949812D02*
X61807056Y-164006955D01*
X61807056Y-164006955D02*
X61759436Y-163949812D01*
X61759436Y-163949812D02*
X61854675Y-163949812D01*
X60854675Y-163149812D02*
X60854675Y-163035526D01*
X60854675Y-163035526D02*
X60902294Y-162921240D01*
X60902294Y-162921240D02*
X60949913Y-162864098D01*
X60949913Y-162864098D02*
X61045151Y-162806955D01*
X61045151Y-162806955D02*
X61235627Y-162749812D01*
X61235627Y-162749812D02*
X61473722Y-162749812D01*
X61473722Y-162749812D02*
X61664198Y-162806955D01*
X61664198Y-162806955D02*
X61759436Y-162864098D01*
X61759436Y-162864098D02*
X61807056Y-162921240D01*
X61807056Y-162921240D02*
X61854675Y-163035526D01*
X61854675Y-163035526D02*
X61854675Y-163149812D01*
X61854675Y-163149812D02*
X61807056Y-163264098D01*
X61807056Y-163264098D02*
X61759436Y-163321240D01*
X61759436Y-163321240D02*
X61664198Y-163378383D01*
X61664198Y-163378383D02*
X61473722Y-163435526D01*
X61473722Y-163435526D02*
X61235627Y-163435526D01*
X61235627Y-163435526D02*
X61045151Y-163378383D01*
X61045151Y-163378383D02*
X60949913Y-163321240D01*
X60949913Y-163321240D02*
X60902294Y-163264098D01*
X60902294Y-163264098D02*
X60854675Y-163149812D01*
X63845571Y-171206955D02*
X63797952Y-171264098D01*
X63797952Y-171264098D02*
X63655095Y-171378384D01*
X63655095Y-171378384D02*
X63559857Y-171435527D01*
X63559857Y-171435527D02*
X63417000Y-171492669D01*
X63417000Y-171492669D02*
X63178904Y-171549812D01*
X63178904Y-171549812D02*
X62988428Y-171549812D01*
X62988428Y-171549812D02*
X62750333Y-171492669D01*
X62750333Y-171492669D02*
X62607476Y-171435527D01*
X62607476Y-171435527D02*
X62512238Y-171378384D01*
X62512238Y-171378384D02*
X62369380Y-171264098D01*
X62369380Y-171264098D02*
X62321761Y-171206955D01*
X63417000Y-170235527D02*
X63464619Y-170349812D01*
X63464619Y-170349812D02*
X63464619Y-170578384D01*
X63464619Y-170578384D02*
X63417000Y-170692669D01*
X63417000Y-170692669D02*
X63369380Y-170749812D01*
X63369380Y-170749812D02*
X63274142Y-170806955D01*
X63274142Y-170806955D02*
X62988428Y-170806955D01*
X62988428Y-170806955D02*
X62893190Y-170749812D01*
X62893190Y-170749812D02*
X62845571Y-170692669D01*
X62845571Y-170692669D02*
X62797952Y-170578384D01*
X62797952Y-170578384D02*
X62797952Y-170349812D01*
X62797952Y-170349812D02*
X62845571Y-170235527D01*
X63845571Y-169835527D02*
X63797952Y-169778384D01*
X63797952Y-169778384D02*
X63655095Y-169664098D01*
X63655095Y-169664098D02*
X63559857Y-169606956D01*
X63559857Y-169606956D02*
X63417000Y-169549813D01*
X63417000Y-169549813D02*
X63178904Y-169492670D01*
X63178904Y-169492670D02*
X62988428Y-169492670D01*
X62988428Y-169492670D02*
X62750333Y-169549813D01*
X62750333Y-169549813D02*
X62607476Y-169606956D01*
X62607476Y-169606956D02*
X62512238Y-169664098D01*
X62512238Y-169664098D02*
X62369380Y-169778384D01*
X62369380Y-169778384D02*
X62321761Y-169835527D01*
X63178904Y-168978384D02*
X63178904Y-168406956D01*
X63464619Y-169092670D02*
X62464619Y-168692670D01*
X62464619Y-168692670D02*
X63464619Y-168292670D01*
X63464619Y-167892670D02*
X62464619Y-167892670D01*
X63083666Y-167778385D02*
X63464619Y-167435527D01*
X62797952Y-167435527D02*
X63178904Y-167892670D01*
X63464619Y-166921241D02*
X62797952Y-166921241D01*
X62464619Y-166921241D02*
X62512238Y-166978384D01*
X62512238Y-166978384D02*
X62559857Y-166921241D01*
X62559857Y-166921241D02*
X62512238Y-166864098D01*
X62512238Y-166864098D02*
X62464619Y-166921241D01*
X62464619Y-166921241D02*
X62559857Y-166921241D01*
X63464619Y-166349812D02*
X62797952Y-166349812D01*
X62988428Y-166349812D02*
X62893190Y-166292669D01*
X62893190Y-166292669D02*
X62845571Y-166235527D01*
X62845571Y-166235527D02*
X62797952Y-166121241D01*
X62797952Y-166121241D02*
X62797952Y-166006955D01*
X63464619Y-165092670D02*
X62940809Y-165092670D01*
X62940809Y-165092670D02*
X62845571Y-165149812D01*
X62845571Y-165149812D02*
X62797952Y-165264098D01*
X62797952Y-165264098D02*
X62797952Y-165492670D01*
X62797952Y-165492670D02*
X62845571Y-165606955D01*
X63417000Y-165092670D02*
X63464619Y-165206955D01*
X63464619Y-165206955D02*
X63464619Y-165492670D01*
X63464619Y-165492670D02*
X63417000Y-165606955D01*
X63417000Y-165606955D02*
X63321761Y-165664098D01*
X63321761Y-165664098D02*
X63226523Y-165664098D01*
X63226523Y-165664098D02*
X63131285Y-165606955D01*
X63131285Y-165606955D02*
X63083666Y-165492670D01*
X63083666Y-165492670D02*
X63083666Y-165206955D01*
X63083666Y-165206955D02*
X63036047Y-165092670D01*
X63369380Y-162921241D02*
X63417000Y-162978384D01*
X63417000Y-162978384D02*
X63464619Y-163149812D01*
X63464619Y-163149812D02*
X63464619Y-163264098D01*
X63464619Y-163264098D02*
X63417000Y-163435527D01*
X63417000Y-163435527D02*
X63321761Y-163549812D01*
X63321761Y-163549812D02*
X63226523Y-163606955D01*
X63226523Y-163606955D02*
X63036047Y-163664098D01*
X63036047Y-163664098D02*
X62893190Y-163664098D01*
X62893190Y-163664098D02*
X62702714Y-163606955D01*
X62702714Y-163606955D02*
X62607476Y-163549812D01*
X62607476Y-163549812D02*
X62512238Y-163435527D01*
X62512238Y-163435527D02*
X62464619Y-163264098D01*
X62464619Y-163264098D02*
X62464619Y-163149812D01*
X62464619Y-163149812D02*
X62512238Y-162978384D01*
X62512238Y-162978384D02*
X62559857Y-162921241D01*
X63464619Y-162235527D02*
X63417000Y-162349812D01*
X63417000Y-162349812D02*
X63369380Y-162406955D01*
X63369380Y-162406955D02*
X63274142Y-162464098D01*
X63274142Y-162464098D02*
X62988428Y-162464098D01*
X62988428Y-162464098D02*
X62893190Y-162406955D01*
X62893190Y-162406955D02*
X62845571Y-162349812D01*
X62845571Y-162349812D02*
X62797952Y-162235527D01*
X62797952Y-162235527D02*
X62797952Y-162064098D01*
X62797952Y-162064098D02*
X62845571Y-161949812D01*
X62845571Y-161949812D02*
X62893190Y-161892670D01*
X62893190Y-161892670D02*
X62988428Y-161835527D01*
X62988428Y-161835527D02*
X63274142Y-161835527D01*
X63274142Y-161835527D02*
X63369380Y-161892670D01*
X63369380Y-161892670D02*
X63417000Y-161949812D01*
X63417000Y-161949812D02*
X63464619Y-162064098D01*
X63464619Y-162064098D02*
X63464619Y-162235527D01*
X63464619Y-161321241D02*
X62797952Y-161321241D01*
X62988428Y-161321241D02*
X62893190Y-161264098D01*
X62893190Y-161264098D02*
X62845571Y-161206956D01*
X62845571Y-161206956D02*
X62797952Y-161092670D01*
X62797952Y-161092670D02*
X62797952Y-160978384D01*
X62797952Y-160578384D02*
X63797952Y-160578384D01*
X62845571Y-160578384D02*
X62797952Y-160464099D01*
X62797952Y-160464099D02*
X62797952Y-160235527D01*
X62797952Y-160235527D02*
X62845571Y-160121241D01*
X62845571Y-160121241D02*
X62893190Y-160064099D01*
X62893190Y-160064099D02*
X62988428Y-160006956D01*
X62988428Y-160006956D02*
X63274142Y-160006956D01*
X63274142Y-160006956D02*
X63369380Y-160064099D01*
X63369380Y-160064099D02*
X63417000Y-160121241D01*
X63417000Y-160121241D02*
X63464619Y-160235527D01*
X63464619Y-160235527D02*
X63464619Y-160464099D01*
X63464619Y-160464099D02*
X63417000Y-160578384D01*
X63369380Y-159492670D02*
X63417000Y-159435527D01*
X63417000Y-159435527D02*
X63464619Y-159492670D01*
X63464619Y-159492670D02*
X63417000Y-159549813D01*
X63417000Y-159549813D02*
X63369380Y-159492670D01*
X63369380Y-159492670D02*
X63464619Y-159492670D01*
D11*
X68457142Y-163659580D02*
X68409523Y-163707200D01*
X68409523Y-163707200D02*
X68266666Y-163754819D01*
X68266666Y-163754819D02*
X68171428Y-163754819D01*
X68171428Y-163754819D02*
X68028571Y-163707200D01*
X68028571Y-163707200D02*
X67933333Y-163611961D01*
X67933333Y-163611961D02*
X67885714Y-163516723D01*
X67885714Y-163516723D02*
X67838095Y-163326247D01*
X67838095Y-163326247D02*
X67838095Y-163183390D01*
X67838095Y-163183390D02*
X67885714Y-162992914D01*
X67885714Y-162992914D02*
X67933333Y-162897676D01*
X67933333Y-162897676D02*
X68028571Y-162802438D01*
X68028571Y-162802438D02*
X68171428Y-162754819D01*
X68171428Y-162754819D02*
X68266666Y-162754819D01*
X68266666Y-162754819D02*
X68409523Y-162802438D01*
X68409523Y-162802438D02*
X68457142Y-162850057D01*
X69409523Y-163754819D02*
X68838095Y-163754819D01*
X69123809Y-163754819D02*
X69123809Y-162754819D01*
X69123809Y-162754819D02*
X69028571Y-162897676D01*
X69028571Y-162897676D02*
X68933333Y-162992914D01*
X68933333Y-162992914D02*
X68838095Y-163040533D01*
X70266666Y-163088152D02*
X70266666Y-163754819D01*
X70028571Y-162707200D02*
X69790476Y-163421485D01*
X69790476Y-163421485D02*
X70409523Y-163421485D01*
X91257142Y-124059580D02*
X91209523Y-124107200D01*
X91209523Y-124107200D02*
X91066666Y-124154819D01*
X91066666Y-124154819D02*
X90971428Y-124154819D01*
X90971428Y-124154819D02*
X90828571Y-124107200D01*
X90828571Y-124107200D02*
X90733333Y-124011961D01*
X90733333Y-124011961D02*
X90685714Y-123916723D01*
X90685714Y-123916723D02*
X90638095Y-123726247D01*
X90638095Y-123726247D02*
X90638095Y-123583390D01*
X90638095Y-123583390D02*
X90685714Y-123392914D01*
X90685714Y-123392914D02*
X90733333Y-123297676D01*
X90733333Y-123297676D02*
X90828571Y-123202438D01*
X90828571Y-123202438D02*
X90971428Y-123154819D01*
X90971428Y-123154819D02*
X91066666Y-123154819D01*
X91066666Y-123154819D02*
X91209523Y-123202438D01*
X91209523Y-123202438D02*
X91257142Y-123250057D01*
X92209523Y-124154819D02*
X91638095Y-124154819D01*
X91923809Y-124154819D02*
X91923809Y-123154819D01*
X91923809Y-123154819D02*
X91828571Y-123297676D01*
X91828571Y-123297676D02*
X91733333Y-123392914D01*
X91733333Y-123392914D02*
X91638095Y-123440533D01*
X93114285Y-123154819D02*
X92638095Y-123154819D01*
X92638095Y-123154819D02*
X92590476Y-123631009D01*
X92590476Y-123631009D02*
X92638095Y-123583390D01*
X92638095Y-123583390D02*
X92733333Y-123535771D01*
X92733333Y-123535771D02*
X92971428Y-123535771D01*
X92971428Y-123535771D02*
X93066666Y-123583390D01*
X93066666Y-123583390D02*
X93114285Y-123631009D01*
X93114285Y-123631009D02*
X93161904Y-123726247D01*
X93161904Y-123726247D02*
X93161904Y-123964342D01*
X93161904Y-123964342D02*
X93114285Y-124059580D01*
X93114285Y-124059580D02*
X93066666Y-124107200D01*
X93066666Y-124107200D02*
X92971428Y-124154819D01*
X92971428Y-124154819D02*
X92733333Y-124154819D01*
X92733333Y-124154819D02*
X92638095Y-124107200D01*
X92638095Y-124107200D02*
X92590476Y-124059580D01*
X88083333Y-134454819D02*
X87750000Y-133978628D01*
X87511905Y-134454819D02*
X87511905Y-133454819D01*
X87511905Y-133454819D02*
X87892857Y-133454819D01*
X87892857Y-133454819D02*
X87988095Y-133502438D01*
X87988095Y-133502438D02*
X88035714Y-133550057D01*
X88035714Y-133550057D02*
X88083333Y-133645295D01*
X88083333Y-133645295D02*
X88083333Y-133788152D01*
X88083333Y-133788152D02*
X88035714Y-133883390D01*
X88035714Y-133883390D02*
X87988095Y-133931009D01*
X87988095Y-133931009D02*
X87892857Y-133978628D01*
X87892857Y-133978628D02*
X87511905Y-133978628D01*
X88416667Y-133454819D02*
X89083333Y-133454819D01*
X89083333Y-133454819D02*
X88654762Y-134454819D01*
X79457142Y-154504819D02*
X79123809Y-154028628D01*
X78885714Y-154504819D02*
X78885714Y-153504819D01*
X78885714Y-153504819D02*
X79266666Y-153504819D01*
X79266666Y-153504819D02*
X79361904Y-153552438D01*
X79361904Y-153552438D02*
X79409523Y-153600057D01*
X79409523Y-153600057D02*
X79457142Y-153695295D01*
X79457142Y-153695295D02*
X79457142Y-153838152D01*
X79457142Y-153838152D02*
X79409523Y-153933390D01*
X79409523Y-153933390D02*
X79361904Y-153981009D01*
X79361904Y-153981009D02*
X79266666Y-154028628D01*
X79266666Y-154028628D02*
X78885714Y-154028628D01*
X79838095Y-153600057D02*
X79885714Y-153552438D01*
X79885714Y-153552438D02*
X79980952Y-153504819D01*
X79980952Y-153504819D02*
X80219047Y-153504819D01*
X80219047Y-153504819D02*
X80314285Y-153552438D01*
X80314285Y-153552438D02*
X80361904Y-153600057D01*
X80361904Y-153600057D02*
X80409523Y-153695295D01*
X80409523Y-153695295D02*
X80409523Y-153790533D01*
X80409523Y-153790533D02*
X80361904Y-153933390D01*
X80361904Y-153933390D02*
X79790476Y-154504819D01*
X79790476Y-154504819D02*
X80409523Y-154504819D01*
X81028571Y-153504819D02*
X81123809Y-153504819D01*
X81123809Y-153504819D02*
X81219047Y-153552438D01*
X81219047Y-153552438D02*
X81266666Y-153600057D01*
X81266666Y-153600057D02*
X81314285Y-153695295D01*
X81314285Y-153695295D02*
X81361904Y-153885771D01*
X81361904Y-153885771D02*
X81361904Y-154123866D01*
X81361904Y-154123866D02*
X81314285Y-154314342D01*
X81314285Y-154314342D02*
X81266666Y-154409580D01*
X81266666Y-154409580D02*
X81219047Y-154457200D01*
X81219047Y-154457200D02*
X81123809Y-154504819D01*
X81123809Y-154504819D02*
X81028571Y-154504819D01*
X81028571Y-154504819D02*
X80933333Y-154457200D01*
X80933333Y-154457200D02*
X80885714Y-154409580D01*
X80885714Y-154409580D02*
X80838095Y-154314342D01*
X80838095Y-154314342D02*
X80790476Y-154123866D01*
X80790476Y-154123866D02*
X80790476Y-153885771D01*
X80790476Y-153885771D02*
X80838095Y-153695295D01*
X80838095Y-153695295D02*
X80885714Y-153600057D01*
X80885714Y-153600057D02*
X80933333Y-153552438D01*
X80933333Y-153552438D02*
X81028571Y-153504819D01*
X75033333Y-142004819D02*
X74700000Y-141528628D01*
X74461905Y-142004819D02*
X74461905Y-141004819D01*
X74461905Y-141004819D02*
X74842857Y-141004819D01*
X74842857Y-141004819D02*
X74938095Y-141052438D01*
X74938095Y-141052438D02*
X74985714Y-141100057D01*
X74985714Y-141100057D02*
X75033333Y-141195295D01*
X75033333Y-141195295D02*
X75033333Y-141338152D01*
X75033333Y-141338152D02*
X74985714Y-141433390D01*
X74985714Y-141433390D02*
X74938095Y-141481009D01*
X74938095Y-141481009D02*
X74842857Y-141528628D01*
X74842857Y-141528628D02*
X74461905Y-141528628D01*
X75985714Y-142004819D02*
X75414286Y-142004819D01*
X75700000Y-142004819D02*
X75700000Y-141004819D01*
X75700000Y-141004819D02*
X75604762Y-141147676D01*
X75604762Y-141147676D02*
X75509524Y-141242914D01*
X75509524Y-141242914D02*
X75414286Y-141290533D01*
X99154819Y-123838094D02*
X98154819Y-123838094D01*
X98154819Y-123838094D02*
X98154819Y-123599999D01*
X98154819Y-123599999D02*
X98202438Y-123457142D01*
X98202438Y-123457142D02*
X98297676Y-123361904D01*
X98297676Y-123361904D02*
X98392914Y-123314285D01*
X98392914Y-123314285D02*
X98583390Y-123266666D01*
X98583390Y-123266666D02*
X98726247Y-123266666D01*
X98726247Y-123266666D02*
X98916723Y-123314285D01*
X98916723Y-123314285D02*
X99011961Y-123361904D01*
X99011961Y-123361904D02*
X99107200Y-123457142D01*
X99107200Y-123457142D02*
X99154819Y-123599999D01*
X99154819Y-123599999D02*
X99154819Y-123838094D01*
X98154819Y-122933332D02*
X98154819Y-122266666D01*
X98154819Y-122266666D02*
X99154819Y-122695237D01*
X92207200Y-134661904D02*
X92254819Y-134519047D01*
X92254819Y-134519047D02*
X92254819Y-134280952D01*
X92254819Y-134280952D02*
X92207200Y-134185714D01*
X92207200Y-134185714D02*
X92159580Y-134138095D01*
X92159580Y-134138095D02*
X92064342Y-134090476D01*
X92064342Y-134090476D02*
X91969104Y-134090476D01*
X91969104Y-134090476D02*
X91873866Y-134138095D01*
X91873866Y-134138095D02*
X91826247Y-134185714D01*
X91826247Y-134185714D02*
X91778628Y-134280952D01*
X91778628Y-134280952D02*
X91731009Y-134471428D01*
X91731009Y-134471428D02*
X91683390Y-134566666D01*
X91683390Y-134566666D02*
X91635771Y-134614285D01*
X91635771Y-134614285D02*
X91540533Y-134661904D01*
X91540533Y-134661904D02*
X91445295Y-134661904D01*
X91445295Y-134661904D02*
X91350057Y-134614285D01*
X91350057Y-134614285D02*
X91302438Y-134566666D01*
X91302438Y-134566666D02*
X91254819Y-134471428D01*
X91254819Y-134471428D02*
X91254819Y-134233333D01*
X91254819Y-134233333D02*
X91302438Y-134090476D01*
X92254819Y-133138095D02*
X92254819Y-133709523D01*
X92254819Y-133423809D02*
X91254819Y-133423809D01*
X91254819Y-133423809D02*
X91397676Y-133519047D01*
X91397676Y-133519047D02*
X91492914Y-133614285D01*
X91492914Y-133614285D02*
X91540533Y-133709523D01*
X91357142Y-121454819D02*
X91023809Y-120978628D01*
X90785714Y-121454819D02*
X90785714Y-120454819D01*
X90785714Y-120454819D02*
X91166666Y-120454819D01*
X91166666Y-120454819D02*
X91261904Y-120502438D01*
X91261904Y-120502438D02*
X91309523Y-120550057D01*
X91309523Y-120550057D02*
X91357142Y-120645295D01*
X91357142Y-120645295D02*
X91357142Y-120788152D01*
X91357142Y-120788152D02*
X91309523Y-120883390D01*
X91309523Y-120883390D02*
X91261904Y-120931009D01*
X91261904Y-120931009D02*
X91166666Y-120978628D01*
X91166666Y-120978628D02*
X90785714Y-120978628D01*
X92309523Y-121454819D02*
X91738095Y-121454819D01*
X92023809Y-121454819D02*
X92023809Y-120454819D01*
X92023809Y-120454819D02*
X91928571Y-120597676D01*
X91928571Y-120597676D02*
X91833333Y-120692914D01*
X91833333Y-120692914D02*
X91738095Y-120740533D01*
X93166666Y-120788152D02*
X93166666Y-121454819D01*
X92928571Y-120407200D02*
X92690476Y-121121485D01*
X92690476Y-121121485D02*
X93309523Y-121121485D01*
X85734819Y-139449404D02*
X86544342Y-139449404D01*
X86544342Y-139449404D02*
X86639580Y-139401785D01*
X86639580Y-139401785D02*
X86687200Y-139354166D01*
X86687200Y-139354166D02*
X86734819Y-139258928D01*
X86734819Y-139258928D02*
X86734819Y-139068452D01*
X86734819Y-139068452D02*
X86687200Y-138973214D01*
X86687200Y-138973214D02*
X86639580Y-138925595D01*
X86639580Y-138925595D02*
X86544342Y-138877976D01*
X86544342Y-138877976D02*
X85734819Y-138877976D01*
X86734819Y-137877976D02*
X86734819Y-138449404D01*
X86734819Y-138163690D02*
X85734819Y-138163690D01*
X85734819Y-138163690D02*
X85877676Y-138258928D01*
X85877676Y-138258928D02*
X85972914Y-138354166D01*
X85972914Y-138354166D02*
X86020533Y-138449404D01*
X65433333Y-163759580D02*
X65385714Y-163807200D01*
X65385714Y-163807200D02*
X65242857Y-163854819D01*
X65242857Y-163854819D02*
X65147619Y-163854819D01*
X65147619Y-163854819D02*
X65004762Y-163807200D01*
X65004762Y-163807200D02*
X64909524Y-163711961D01*
X64909524Y-163711961D02*
X64861905Y-163616723D01*
X64861905Y-163616723D02*
X64814286Y-163426247D01*
X64814286Y-163426247D02*
X64814286Y-163283390D01*
X64814286Y-163283390D02*
X64861905Y-163092914D01*
X64861905Y-163092914D02*
X64909524Y-162997676D01*
X64909524Y-162997676D02*
X65004762Y-162902438D01*
X65004762Y-162902438D02*
X65147619Y-162854819D01*
X65147619Y-162854819D02*
X65242857Y-162854819D01*
X65242857Y-162854819D02*
X65385714Y-162902438D01*
X65385714Y-162902438D02*
X65433333Y-162950057D01*
X65766667Y-162854819D02*
X66433333Y-162854819D01*
X66433333Y-162854819D02*
X66004762Y-163854819D01*
X77159580Y-157866666D02*
X77207200Y-157914285D01*
X77207200Y-157914285D02*
X77254819Y-158057142D01*
X77254819Y-158057142D02*
X77254819Y-158152380D01*
X77254819Y-158152380D02*
X77207200Y-158295237D01*
X77207200Y-158295237D02*
X77111961Y-158390475D01*
X77111961Y-158390475D02*
X77016723Y-158438094D01*
X77016723Y-158438094D02*
X76826247Y-158485713D01*
X76826247Y-158485713D02*
X76683390Y-158485713D01*
X76683390Y-158485713D02*
X76492914Y-158438094D01*
X76492914Y-158438094D02*
X76397676Y-158390475D01*
X76397676Y-158390475D02*
X76302438Y-158295237D01*
X76302438Y-158295237D02*
X76254819Y-158152380D01*
X76254819Y-158152380D02*
X76254819Y-158057142D01*
X76254819Y-158057142D02*
X76302438Y-157914285D01*
X76302438Y-157914285D02*
X76350057Y-157866666D01*
X76350057Y-157485713D02*
X76302438Y-157438094D01*
X76302438Y-157438094D02*
X76254819Y-157342856D01*
X76254819Y-157342856D02*
X76254819Y-157104761D01*
X76254819Y-157104761D02*
X76302438Y-157009523D01*
X76302438Y-157009523D02*
X76350057Y-156961904D01*
X76350057Y-156961904D02*
X76445295Y-156914285D01*
X76445295Y-156914285D02*
X76540533Y-156914285D01*
X76540533Y-156914285D02*
X76683390Y-156961904D01*
X76683390Y-156961904D02*
X77254819Y-157533332D01*
X77254819Y-157533332D02*
X77254819Y-156914285D01*
X61804819Y-135738094D02*
X60804819Y-135738094D01*
X60804819Y-135738094D02*
X60804819Y-135499999D01*
X60804819Y-135499999D02*
X60852438Y-135357142D01*
X60852438Y-135357142D02*
X60947676Y-135261904D01*
X60947676Y-135261904D02*
X61042914Y-135214285D01*
X61042914Y-135214285D02*
X61233390Y-135166666D01*
X61233390Y-135166666D02*
X61376247Y-135166666D01*
X61376247Y-135166666D02*
X61566723Y-135214285D01*
X61566723Y-135214285D02*
X61661961Y-135261904D01*
X61661961Y-135261904D02*
X61757200Y-135357142D01*
X61757200Y-135357142D02*
X61804819Y-135499999D01*
X61804819Y-135499999D02*
X61804819Y-135738094D01*
X61138152Y-134309523D02*
X61804819Y-134309523D01*
X60757200Y-134547618D02*
X61471485Y-134785713D01*
X61471485Y-134785713D02*
X61471485Y-134166666D01*
X91057142Y-118754819D02*
X90723809Y-118278628D01*
X90485714Y-118754819D02*
X90485714Y-117754819D01*
X90485714Y-117754819D02*
X90866666Y-117754819D01*
X90866666Y-117754819D02*
X90961904Y-117802438D01*
X90961904Y-117802438D02*
X91009523Y-117850057D01*
X91009523Y-117850057D02*
X91057142Y-117945295D01*
X91057142Y-117945295D02*
X91057142Y-118088152D01*
X91057142Y-118088152D02*
X91009523Y-118183390D01*
X91009523Y-118183390D02*
X90961904Y-118231009D01*
X90961904Y-118231009D02*
X90866666Y-118278628D01*
X90866666Y-118278628D02*
X90485714Y-118278628D01*
X92009523Y-118754819D02*
X91438095Y-118754819D01*
X91723809Y-118754819D02*
X91723809Y-117754819D01*
X91723809Y-117754819D02*
X91628571Y-117897676D01*
X91628571Y-117897676D02*
X91533333Y-117992914D01*
X91533333Y-117992914D02*
X91438095Y-118040533D01*
X92485714Y-118754819D02*
X92676190Y-118754819D01*
X92676190Y-118754819D02*
X92771428Y-118707200D01*
X92771428Y-118707200D02*
X92819047Y-118659580D01*
X92819047Y-118659580D02*
X92914285Y-118516723D01*
X92914285Y-118516723D02*
X92961904Y-118326247D01*
X92961904Y-118326247D02*
X92961904Y-117945295D01*
X92961904Y-117945295D02*
X92914285Y-117850057D01*
X92914285Y-117850057D02*
X92866666Y-117802438D01*
X92866666Y-117802438D02*
X92771428Y-117754819D01*
X92771428Y-117754819D02*
X92580952Y-117754819D01*
X92580952Y-117754819D02*
X92485714Y-117802438D01*
X92485714Y-117802438D02*
X92438095Y-117850057D01*
X92438095Y-117850057D02*
X92390476Y-117945295D01*
X92390476Y-117945295D02*
X92390476Y-118183390D01*
X92390476Y-118183390D02*
X92438095Y-118278628D01*
X92438095Y-118278628D02*
X92485714Y-118326247D01*
X92485714Y-118326247D02*
X92580952Y-118373866D01*
X92580952Y-118373866D02*
X92771428Y-118373866D01*
X92771428Y-118373866D02*
X92866666Y-118326247D01*
X92866666Y-118326247D02*
X92914285Y-118278628D01*
X92914285Y-118278628D02*
X92961904Y-118183390D01*
X68339580Y-118666666D02*
X68387200Y-118714285D01*
X68387200Y-118714285D02*
X68434819Y-118857142D01*
X68434819Y-118857142D02*
X68434819Y-118952380D01*
X68434819Y-118952380D02*
X68387200Y-119095237D01*
X68387200Y-119095237D02*
X68291961Y-119190475D01*
X68291961Y-119190475D02*
X68196723Y-119238094D01*
X68196723Y-119238094D02*
X68006247Y-119285713D01*
X68006247Y-119285713D02*
X67863390Y-119285713D01*
X67863390Y-119285713D02*
X67672914Y-119238094D01*
X67672914Y-119238094D02*
X67577676Y-119190475D01*
X67577676Y-119190475D02*
X67482438Y-119095237D01*
X67482438Y-119095237D02*
X67434819Y-118952380D01*
X67434819Y-118952380D02*
X67434819Y-118857142D01*
X67434819Y-118857142D02*
X67482438Y-118714285D01*
X67482438Y-118714285D02*
X67530057Y-118666666D01*
X67863390Y-118095237D02*
X67815771Y-118190475D01*
X67815771Y-118190475D02*
X67768152Y-118238094D01*
X67768152Y-118238094D02*
X67672914Y-118285713D01*
X67672914Y-118285713D02*
X67625295Y-118285713D01*
X67625295Y-118285713D02*
X67530057Y-118238094D01*
X67530057Y-118238094D02*
X67482438Y-118190475D01*
X67482438Y-118190475D02*
X67434819Y-118095237D01*
X67434819Y-118095237D02*
X67434819Y-117904761D01*
X67434819Y-117904761D02*
X67482438Y-117809523D01*
X67482438Y-117809523D02*
X67530057Y-117761904D01*
X67530057Y-117761904D02*
X67625295Y-117714285D01*
X67625295Y-117714285D02*
X67672914Y-117714285D01*
X67672914Y-117714285D02*
X67768152Y-117761904D01*
X67768152Y-117761904D02*
X67815771Y-117809523D01*
X67815771Y-117809523D02*
X67863390Y-117904761D01*
X67863390Y-117904761D02*
X67863390Y-118095237D01*
X67863390Y-118095237D02*
X67911009Y-118190475D01*
X67911009Y-118190475D02*
X67958628Y-118238094D01*
X67958628Y-118238094D02*
X68053866Y-118285713D01*
X68053866Y-118285713D02*
X68244342Y-118285713D01*
X68244342Y-118285713D02*
X68339580Y-118238094D01*
X68339580Y-118238094D02*
X68387200Y-118190475D01*
X68387200Y-118190475D02*
X68434819Y-118095237D01*
X68434819Y-118095237D02*
X68434819Y-117904761D01*
X68434819Y-117904761D02*
X68387200Y-117809523D01*
X68387200Y-117809523D02*
X68339580Y-117761904D01*
X68339580Y-117761904D02*
X68244342Y-117714285D01*
X68244342Y-117714285D02*
X68053866Y-117714285D01*
X68053866Y-117714285D02*
X67958628Y-117761904D01*
X67958628Y-117761904D02*
X67911009Y-117809523D01*
X67911009Y-117809523D02*
X67863390Y-117904761D01*
X75757142Y-164004819D02*
X75423809Y-163528628D01*
X75185714Y-164004819D02*
X75185714Y-163004819D01*
X75185714Y-163004819D02*
X75566666Y-163004819D01*
X75566666Y-163004819D02*
X75661904Y-163052438D01*
X75661904Y-163052438D02*
X75709523Y-163100057D01*
X75709523Y-163100057D02*
X75757142Y-163195295D01*
X75757142Y-163195295D02*
X75757142Y-163338152D01*
X75757142Y-163338152D02*
X75709523Y-163433390D01*
X75709523Y-163433390D02*
X75661904Y-163481009D01*
X75661904Y-163481009D02*
X75566666Y-163528628D01*
X75566666Y-163528628D02*
X75185714Y-163528628D01*
X76138095Y-163100057D02*
X76185714Y-163052438D01*
X76185714Y-163052438D02*
X76280952Y-163004819D01*
X76280952Y-163004819D02*
X76519047Y-163004819D01*
X76519047Y-163004819D02*
X76614285Y-163052438D01*
X76614285Y-163052438D02*
X76661904Y-163100057D01*
X76661904Y-163100057D02*
X76709523Y-163195295D01*
X76709523Y-163195295D02*
X76709523Y-163290533D01*
X76709523Y-163290533D02*
X76661904Y-163433390D01*
X76661904Y-163433390D02*
X76090476Y-164004819D01*
X76090476Y-164004819D02*
X76709523Y-164004819D01*
X77090476Y-163100057D02*
X77138095Y-163052438D01*
X77138095Y-163052438D02*
X77233333Y-163004819D01*
X77233333Y-163004819D02*
X77471428Y-163004819D01*
X77471428Y-163004819D02*
X77566666Y-163052438D01*
X77566666Y-163052438D02*
X77614285Y-163100057D01*
X77614285Y-163100057D02*
X77661904Y-163195295D01*
X77661904Y-163195295D02*
X77661904Y-163290533D01*
X77661904Y-163290533D02*
X77614285Y-163433390D01*
X77614285Y-163433390D02*
X77042857Y-164004819D01*
X77042857Y-164004819D02*
X77661904Y-164004819D01*
X69257142Y-149559580D02*
X69209523Y-149607200D01*
X69209523Y-149607200D02*
X69066666Y-149654819D01*
X69066666Y-149654819D02*
X68971428Y-149654819D01*
X68971428Y-149654819D02*
X68828571Y-149607200D01*
X68828571Y-149607200D02*
X68733333Y-149511961D01*
X68733333Y-149511961D02*
X68685714Y-149416723D01*
X68685714Y-149416723D02*
X68638095Y-149226247D01*
X68638095Y-149226247D02*
X68638095Y-149083390D01*
X68638095Y-149083390D02*
X68685714Y-148892914D01*
X68685714Y-148892914D02*
X68733333Y-148797676D01*
X68733333Y-148797676D02*
X68828571Y-148702438D01*
X68828571Y-148702438D02*
X68971428Y-148654819D01*
X68971428Y-148654819D02*
X69066666Y-148654819D01*
X69066666Y-148654819D02*
X69209523Y-148702438D01*
X69209523Y-148702438D02*
X69257142Y-148750057D01*
X70209523Y-149654819D02*
X69638095Y-149654819D01*
X69923809Y-149654819D02*
X69923809Y-148654819D01*
X69923809Y-148654819D02*
X69828571Y-148797676D01*
X69828571Y-148797676D02*
X69733333Y-148892914D01*
X69733333Y-148892914D02*
X69638095Y-148940533D01*
X71161904Y-149654819D02*
X70590476Y-149654819D01*
X70876190Y-149654819D02*
X70876190Y-148654819D01*
X70876190Y-148654819D02*
X70780952Y-148797676D01*
X70780952Y-148797676D02*
X70685714Y-148892914D01*
X70685714Y-148892914D02*
X70590476Y-148940533D01*
X65104819Y-141655357D02*
X64628628Y-141988690D01*
X65104819Y-142226785D02*
X64104819Y-142226785D01*
X64104819Y-142226785D02*
X64104819Y-141845833D01*
X64104819Y-141845833D02*
X64152438Y-141750595D01*
X64152438Y-141750595D02*
X64200057Y-141702976D01*
X64200057Y-141702976D02*
X64295295Y-141655357D01*
X64295295Y-141655357D02*
X64438152Y-141655357D01*
X64438152Y-141655357D02*
X64533390Y-141702976D01*
X64533390Y-141702976D02*
X64581009Y-141750595D01*
X64581009Y-141750595D02*
X64628628Y-141845833D01*
X64628628Y-141845833D02*
X64628628Y-142226785D01*
X65104819Y-140702976D02*
X65104819Y-141274404D01*
X65104819Y-140988690D02*
X64104819Y-140988690D01*
X64104819Y-140988690D02*
X64247676Y-141083928D01*
X64247676Y-141083928D02*
X64342914Y-141179166D01*
X64342914Y-141179166D02*
X64390533Y-141274404D01*
X64200057Y-140322023D02*
X64152438Y-140274404D01*
X64152438Y-140274404D02*
X64104819Y-140179166D01*
X64104819Y-140179166D02*
X64104819Y-139941071D01*
X64104819Y-139941071D02*
X64152438Y-139845833D01*
X64152438Y-139845833D02*
X64200057Y-139798214D01*
X64200057Y-139798214D02*
X64295295Y-139750595D01*
X64295295Y-139750595D02*
X64390533Y-139750595D01*
X64390533Y-139750595D02*
X64533390Y-139798214D01*
X64533390Y-139798214D02*
X65104819Y-140369642D01*
X65104819Y-140369642D02*
X65104819Y-139750595D01*
X68457142Y-166959580D02*
X68409523Y-167007200D01*
X68409523Y-167007200D02*
X68266666Y-167054819D01*
X68266666Y-167054819D02*
X68171428Y-167054819D01*
X68171428Y-167054819D02*
X68028571Y-167007200D01*
X68028571Y-167007200D02*
X67933333Y-166911961D01*
X67933333Y-166911961D02*
X67885714Y-166816723D01*
X67885714Y-166816723D02*
X67838095Y-166626247D01*
X67838095Y-166626247D02*
X67838095Y-166483390D01*
X67838095Y-166483390D02*
X67885714Y-166292914D01*
X67885714Y-166292914D02*
X67933333Y-166197676D01*
X67933333Y-166197676D02*
X68028571Y-166102438D01*
X68028571Y-166102438D02*
X68171428Y-166054819D01*
X68171428Y-166054819D02*
X68266666Y-166054819D01*
X68266666Y-166054819D02*
X68409523Y-166102438D01*
X68409523Y-166102438D02*
X68457142Y-166150057D01*
X69409523Y-167054819D02*
X68838095Y-167054819D01*
X69123809Y-167054819D02*
X69123809Y-166054819D01*
X69123809Y-166054819D02*
X69028571Y-166197676D01*
X69028571Y-166197676D02*
X68933333Y-166292914D01*
X68933333Y-166292914D02*
X68838095Y-166340533D01*
X69742857Y-166054819D02*
X70361904Y-166054819D01*
X70361904Y-166054819D02*
X70028571Y-166435771D01*
X70028571Y-166435771D02*
X70171428Y-166435771D01*
X70171428Y-166435771D02*
X70266666Y-166483390D01*
X70266666Y-166483390D02*
X70314285Y-166531009D01*
X70314285Y-166531009D02*
X70361904Y-166626247D01*
X70361904Y-166626247D02*
X70361904Y-166864342D01*
X70361904Y-166864342D02*
X70314285Y-166959580D01*
X70314285Y-166959580D02*
X70266666Y-167007200D01*
X70266666Y-167007200D02*
X70171428Y-167054819D01*
X70171428Y-167054819D02*
X69885714Y-167054819D01*
X69885714Y-167054819D02*
X69790476Y-167007200D01*
X69790476Y-167007200D02*
X69742857Y-166959580D01*
X61804819Y-141738094D02*
X60804819Y-141738094D01*
X60804819Y-141738094D02*
X60804819Y-141499999D01*
X60804819Y-141499999D02*
X60852438Y-141357142D01*
X60852438Y-141357142D02*
X60947676Y-141261904D01*
X60947676Y-141261904D02*
X61042914Y-141214285D01*
X61042914Y-141214285D02*
X61233390Y-141166666D01*
X61233390Y-141166666D02*
X61376247Y-141166666D01*
X61376247Y-141166666D02*
X61566723Y-141214285D01*
X61566723Y-141214285D02*
X61661961Y-141261904D01*
X61661961Y-141261904D02*
X61757200Y-141357142D01*
X61757200Y-141357142D02*
X61804819Y-141499999D01*
X61804819Y-141499999D02*
X61804819Y-141738094D01*
X60900057Y-140785713D02*
X60852438Y-140738094D01*
X60852438Y-140738094D02*
X60804819Y-140642856D01*
X60804819Y-140642856D02*
X60804819Y-140404761D01*
X60804819Y-140404761D02*
X60852438Y-140309523D01*
X60852438Y-140309523D02*
X60900057Y-140261904D01*
X60900057Y-140261904D02*
X60995295Y-140214285D01*
X60995295Y-140214285D02*
X61090533Y-140214285D01*
X61090533Y-140214285D02*
X61233390Y-140261904D01*
X61233390Y-140261904D02*
X61804819Y-140833332D01*
X61804819Y-140833332D02*
X61804819Y-140214285D01*
D12*
X67862618Y-174574318D02*
X67862618Y-173304318D01*
X67862618Y-173304318D02*
X68164999Y-173304318D01*
X68164999Y-173304318D02*
X68346428Y-173364794D01*
X68346428Y-173364794D02*
X68467380Y-173485746D01*
X68467380Y-173485746D02*
X68527857Y-173606699D01*
X68527857Y-173606699D02*
X68588333Y-173848603D01*
X68588333Y-173848603D02*
X68588333Y-174030032D01*
X68588333Y-174030032D02*
X68527857Y-174271937D01*
X68527857Y-174271937D02*
X68467380Y-174392889D01*
X68467380Y-174392889D02*
X68346428Y-174513842D01*
X68346428Y-174513842D02*
X68164999Y-174574318D01*
X68164999Y-174574318D02*
X67862618Y-174574318D01*
X69737380Y-173304318D02*
X69132618Y-173304318D01*
X69132618Y-173304318D02*
X69072142Y-173909080D01*
X69072142Y-173909080D02*
X69132618Y-173848603D01*
X69132618Y-173848603D02*
X69253571Y-173788127D01*
X69253571Y-173788127D02*
X69555952Y-173788127D01*
X69555952Y-173788127D02*
X69676904Y-173848603D01*
X69676904Y-173848603D02*
X69737380Y-173909080D01*
X69737380Y-173909080D02*
X69797857Y-174030032D01*
X69797857Y-174030032D02*
X69797857Y-174332413D01*
X69797857Y-174332413D02*
X69737380Y-174453365D01*
X69737380Y-174453365D02*
X69676904Y-174513842D01*
X69676904Y-174513842D02*
X69555952Y-174574318D01*
X69555952Y-174574318D02*
X69253571Y-174574318D01*
X69253571Y-174574318D02*
X69132618Y-174513842D01*
X69132618Y-174513842D02*
X69072142Y-174453365D01*
D11*
X78083333Y-134354819D02*
X77750000Y-133878628D01*
X77511905Y-134354819D02*
X77511905Y-133354819D01*
X77511905Y-133354819D02*
X77892857Y-133354819D01*
X77892857Y-133354819D02*
X77988095Y-133402438D01*
X77988095Y-133402438D02*
X78035714Y-133450057D01*
X78035714Y-133450057D02*
X78083333Y-133545295D01*
X78083333Y-133545295D02*
X78083333Y-133688152D01*
X78083333Y-133688152D02*
X78035714Y-133783390D01*
X78035714Y-133783390D02*
X77988095Y-133831009D01*
X77988095Y-133831009D02*
X77892857Y-133878628D01*
X77892857Y-133878628D02*
X77511905Y-133878628D01*
X78654762Y-133783390D02*
X78559524Y-133735771D01*
X78559524Y-133735771D02*
X78511905Y-133688152D01*
X78511905Y-133688152D02*
X78464286Y-133592914D01*
X78464286Y-133592914D02*
X78464286Y-133545295D01*
X78464286Y-133545295D02*
X78511905Y-133450057D01*
X78511905Y-133450057D02*
X78559524Y-133402438D01*
X78559524Y-133402438D02*
X78654762Y-133354819D01*
X78654762Y-133354819D02*
X78845238Y-133354819D01*
X78845238Y-133354819D02*
X78940476Y-133402438D01*
X78940476Y-133402438D02*
X78988095Y-133450057D01*
X78988095Y-133450057D02*
X79035714Y-133545295D01*
X79035714Y-133545295D02*
X79035714Y-133592914D01*
X79035714Y-133592914D02*
X78988095Y-133688152D01*
X78988095Y-133688152D02*
X78940476Y-133735771D01*
X78940476Y-133735771D02*
X78845238Y-133783390D01*
X78845238Y-133783390D02*
X78654762Y-133783390D01*
X78654762Y-133783390D02*
X78559524Y-133831009D01*
X78559524Y-133831009D02*
X78511905Y-133878628D01*
X78511905Y-133878628D02*
X78464286Y-133973866D01*
X78464286Y-133973866D02*
X78464286Y-134164342D01*
X78464286Y-134164342D02*
X78511905Y-134259580D01*
X78511905Y-134259580D02*
X78559524Y-134307200D01*
X78559524Y-134307200D02*
X78654762Y-134354819D01*
X78654762Y-134354819D02*
X78845238Y-134354819D01*
X78845238Y-134354819D02*
X78940476Y-134307200D01*
X78940476Y-134307200D02*
X78988095Y-134259580D01*
X78988095Y-134259580D02*
X79035714Y-134164342D01*
X79035714Y-134164342D02*
X79035714Y-133973866D01*
X79035714Y-133973866D02*
X78988095Y-133878628D01*
X78988095Y-133878628D02*
X78940476Y-133831009D01*
X78940476Y-133831009D02*
X78845238Y-133783390D01*
X82104819Y-167642857D02*
X81628628Y-167976190D01*
X82104819Y-168214285D02*
X81104819Y-168214285D01*
X81104819Y-168214285D02*
X81104819Y-167833333D01*
X81104819Y-167833333D02*
X81152438Y-167738095D01*
X81152438Y-167738095D02*
X81200057Y-167690476D01*
X81200057Y-167690476D02*
X81295295Y-167642857D01*
X81295295Y-167642857D02*
X81438152Y-167642857D01*
X81438152Y-167642857D02*
X81533390Y-167690476D01*
X81533390Y-167690476D02*
X81581009Y-167738095D01*
X81581009Y-167738095D02*
X81628628Y-167833333D01*
X81628628Y-167833333D02*
X81628628Y-168214285D01*
X81200057Y-167261904D02*
X81152438Y-167214285D01*
X81152438Y-167214285D02*
X81104819Y-167119047D01*
X81104819Y-167119047D02*
X81104819Y-166880952D01*
X81104819Y-166880952D02*
X81152438Y-166785714D01*
X81152438Y-166785714D02*
X81200057Y-166738095D01*
X81200057Y-166738095D02*
X81295295Y-166690476D01*
X81295295Y-166690476D02*
X81390533Y-166690476D01*
X81390533Y-166690476D02*
X81533390Y-166738095D01*
X81533390Y-166738095D02*
X82104819Y-167309523D01*
X82104819Y-167309523D02*
X82104819Y-166690476D01*
X81438152Y-165833333D02*
X82104819Y-165833333D01*
X81057200Y-166071428D02*
X81771485Y-166309523D01*
X81771485Y-166309523D02*
X81771485Y-165690476D01*
X66757142Y-127954819D02*
X66423809Y-127478628D01*
X66185714Y-127954819D02*
X66185714Y-126954819D01*
X66185714Y-126954819D02*
X66566666Y-126954819D01*
X66566666Y-126954819D02*
X66661904Y-127002438D01*
X66661904Y-127002438D02*
X66709523Y-127050057D01*
X66709523Y-127050057D02*
X66757142Y-127145295D01*
X66757142Y-127145295D02*
X66757142Y-127288152D01*
X66757142Y-127288152D02*
X66709523Y-127383390D01*
X66709523Y-127383390D02*
X66661904Y-127431009D01*
X66661904Y-127431009D02*
X66566666Y-127478628D01*
X66566666Y-127478628D02*
X66185714Y-127478628D01*
X67709523Y-127954819D02*
X67138095Y-127954819D01*
X67423809Y-127954819D02*
X67423809Y-126954819D01*
X67423809Y-126954819D02*
X67328571Y-127097676D01*
X67328571Y-127097676D02*
X67233333Y-127192914D01*
X67233333Y-127192914D02*
X67138095Y-127240533D01*
X68280952Y-127383390D02*
X68185714Y-127335771D01*
X68185714Y-127335771D02*
X68138095Y-127288152D01*
X68138095Y-127288152D02*
X68090476Y-127192914D01*
X68090476Y-127192914D02*
X68090476Y-127145295D01*
X68090476Y-127145295D02*
X68138095Y-127050057D01*
X68138095Y-127050057D02*
X68185714Y-127002438D01*
X68185714Y-127002438D02*
X68280952Y-126954819D01*
X68280952Y-126954819D02*
X68471428Y-126954819D01*
X68471428Y-126954819D02*
X68566666Y-127002438D01*
X68566666Y-127002438D02*
X68614285Y-127050057D01*
X68614285Y-127050057D02*
X68661904Y-127145295D01*
X68661904Y-127145295D02*
X68661904Y-127192914D01*
X68661904Y-127192914D02*
X68614285Y-127288152D01*
X68614285Y-127288152D02*
X68566666Y-127335771D01*
X68566666Y-127335771D02*
X68471428Y-127383390D01*
X68471428Y-127383390D02*
X68280952Y-127383390D01*
X68280952Y-127383390D02*
X68185714Y-127431009D01*
X68185714Y-127431009D02*
X68138095Y-127478628D01*
X68138095Y-127478628D02*
X68090476Y-127573866D01*
X68090476Y-127573866D02*
X68090476Y-127764342D01*
X68090476Y-127764342D02*
X68138095Y-127859580D01*
X68138095Y-127859580D02*
X68185714Y-127907200D01*
X68185714Y-127907200D02*
X68280952Y-127954819D01*
X68280952Y-127954819D02*
X68471428Y-127954819D01*
X68471428Y-127954819D02*
X68566666Y-127907200D01*
X68566666Y-127907200D02*
X68614285Y-127859580D01*
X68614285Y-127859580D02*
X68661904Y-127764342D01*
X68661904Y-127764342D02*
X68661904Y-127573866D01*
X68661904Y-127573866D02*
X68614285Y-127478628D01*
X68614285Y-127478628D02*
X68566666Y-127431009D01*
X68566666Y-127431009D02*
X68471428Y-127383390D01*
X83661905Y-166454819D02*
X83661905Y-165454819D01*
X83661905Y-165454819D02*
X83900000Y-165454819D01*
X83900000Y-165454819D02*
X84042857Y-165502438D01*
X84042857Y-165502438D02*
X84138095Y-165597676D01*
X84138095Y-165597676D02*
X84185714Y-165692914D01*
X84185714Y-165692914D02*
X84233333Y-165883390D01*
X84233333Y-165883390D02*
X84233333Y-166026247D01*
X84233333Y-166026247D02*
X84185714Y-166216723D01*
X84185714Y-166216723D02*
X84138095Y-166311961D01*
X84138095Y-166311961D02*
X84042857Y-166407200D01*
X84042857Y-166407200D02*
X83900000Y-166454819D01*
X83900000Y-166454819D02*
X83661905Y-166454819D01*
X84709524Y-166454819D02*
X84900000Y-166454819D01*
X84900000Y-166454819D02*
X84995238Y-166407200D01*
X84995238Y-166407200D02*
X85042857Y-166359580D01*
X85042857Y-166359580D02*
X85138095Y-166216723D01*
X85138095Y-166216723D02*
X85185714Y-166026247D01*
X85185714Y-166026247D02*
X85185714Y-165645295D01*
X85185714Y-165645295D02*
X85138095Y-165550057D01*
X85138095Y-165550057D02*
X85090476Y-165502438D01*
X85090476Y-165502438D02*
X84995238Y-165454819D01*
X84995238Y-165454819D02*
X84804762Y-165454819D01*
X84804762Y-165454819D02*
X84709524Y-165502438D01*
X84709524Y-165502438D02*
X84661905Y-165550057D01*
X84661905Y-165550057D02*
X84614286Y-165645295D01*
X84614286Y-165645295D02*
X84614286Y-165883390D01*
X84614286Y-165883390D02*
X84661905Y-165978628D01*
X84661905Y-165978628D02*
X84709524Y-166026247D01*
X84709524Y-166026247D02*
X84804762Y-166073866D01*
X84804762Y-166073866D02*
X84995238Y-166073866D01*
X84995238Y-166073866D02*
X85090476Y-166026247D01*
X85090476Y-166026247D02*
X85138095Y-165978628D01*
X85138095Y-165978628D02*
X85185714Y-165883390D01*
X65954819Y-174038094D02*
X64954819Y-174038094D01*
X64954819Y-174038094D02*
X64954819Y-173799999D01*
X64954819Y-173799999D02*
X65002438Y-173657142D01*
X65002438Y-173657142D02*
X65097676Y-173561904D01*
X65097676Y-173561904D02*
X65192914Y-173514285D01*
X65192914Y-173514285D02*
X65383390Y-173466666D01*
X65383390Y-173466666D02*
X65526247Y-173466666D01*
X65526247Y-173466666D02*
X65716723Y-173514285D01*
X65716723Y-173514285D02*
X65811961Y-173561904D01*
X65811961Y-173561904D02*
X65907200Y-173657142D01*
X65907200Y-173657142D02*
X65954819Y-173799999D01*
X65954819Y-173799999D02*
X65954819Y-174038094D01*
X64954819Y-173133332D02*
X64954819Y-172514285D01*
X64954819Y-172514285D02*
X65335771Y-172847618D01*
X65335771Y-172847618D02*
X65335771Y-172704761D01*
X65335771Y-172704761D02*
X65383390Y-172609523D01*
X65383390Y-172609523D02*
X65431009Y-172561904D01*
X65431009Y-172561904D02*
X65526247Y-172514285D01*
X65526247Y-172514285D02*
X65764342Y-172514285D01*
X65764342Y-172514285D02*
X65859580Y-172561904D01*
X65859580Y-172561904D02*
X65907200Y-172609523D01*
X65907200Y-172609523D02*
X65954819Y-172704761D01*
X65954819Y-172704761D02*
X65954819Y-172990475D01*
X65954819Y-172990475D02*
X65907200Y-173085713D01*
X65907200Y-173085713D02*
X65859580Y-173133332D01*
X88083333Y-137954819D02*
X87750000Y-137478628D01*
X87511905Y-137954819D02*
X87511905Y-136954819D01*
X87511905Y-136954819D02*
X87892857Y-136954819D01*
X87892857Y-136954819D02*
X87988095Y-137002438D01*
X87988095Y-137002438D02*
X88035714Y-137050057D01*
X88035714Y-137050057D02*
X88083333Y-137145295D01*
X88083333Y-137145295D02*
X88083333Y-137288152D01*
X88083333Y-137288152D02*
X88035714Y-137383390D01*
X88035714Y-137383390D02*
X87988095Y-137431009D01*
X87988095Y-137431009D02*
X87892857Y-137478628D01*
X87892857Y-137478628D02*
X87511905Y-137478628D01*
X88559524Y-137954819D02*
X88750000Y-137954819D01*
X88750000Y-137954819D02*
X88845238Y-137907200D01*
X88845238Y-137907200D02*
X88892857Y-137859580D01*
X88892857Y-137859580D02*
X88988095Y-137716723D01*
X88988095Y-137716723D02*
X89035714Y-137526247D01*
X89035714Y-137526247D02*
X89035714Y-137145295D01*
X89035714Y-137145295D02*
X88988095Y-137050057D01*
X88988095Y-137050057D02*
X88940476Y-137002438D01*
X88940476Y-137002438D02*
X88845238Y-136954819D01*
X88845238Y-136954819D02*
X88654762Y-136954819D01*
X88654762Y-136954819D02*
X88559524Y-137002438D01*
X88559524Y-137002438D02*
X88511905Y-137050057D01*
X88511905Y-137050057D02*
X88464286Y-137145295D01*
X88464286Y-137145295D02*
X88464286Y-137383390D01*
X88464286Y-137383390D02*
X88511905Y-137478628D01*
X88511905Y-137478628D02*
X88559524Y-137526247D01*
X88559524Y-137526247D02*
X88654762Y-137573866D01*
X88654762Y-137573866D02*
X88845238Y-137573866D01*
X88845238Y-137573866D02*
X88940476Y-137526247D01*
X88940476Y-137526247D02*
X88988095Y-137478628D01*
X88988095Y-137478628D02*
X89035714Y-137383390D01*
X69157142Y-152559580D02*
X69109523Y-152607200D01*
X69109523Y-152607200D02*
X68966666Y-152654819D01*
X68966666Y-152654819D02*
X68871428Y-152654819D01*
X68871428Y-152654819D02*
X68728571Y-152607200D01*
X68728571Y-152607200D02*
X68633333Y-152511961D01*
X68633333Y-152511961D02*
X68585714Y-152416723D01*
X68585714Y-152416723D02*
X68538095Y-152226247D01*
X68538095Y-152226247D02*
X68538095Y-152083390D01*
X68538095Y-152083390D02*
X68585714Y-151892914D01*
X68585714Y-151892914D02*
X68633333Y-151797676D01*
X68633333Y-151797676D02*
X68728571Y-151702438D01*
X68728571Y-151702438D02*
X68871428Y-151654819D01*
X68871428Y-151654819D02*
X68966666Y-151654819D01*
X68966666Y-151654819D02*
X69109523Y-151702438D01*
X69109523Y-151702438D02*
X69157142Y-151750057D01*
X70109523Y-152654819D02*
X69538095Y-152654819D01*
X69823809Y-152654819D02*
X69823809Y-151654819D01*
X69823809Y-151654819D02*
X69728571Y-151797676D01*
X69728571Y-151797676D02*
X69633333Y-151892914D01*
X69633333Y-151892914D02*
X69538095Y-151940533D01*
X70490476Y-151750057D02*
X70538095Y-151702438D01*
X70538095Y-151702438D02*
X70633333Y-151654819D01*
X70633333Y-151654819D02*
X70871428Y-151654819D01*
X70871428Y-151654819D02*
X70966666Y-151702438D01*
X70966666Y-151702438D02*
X71014285Y-151750057D01*
X71014285Y-151750057D02*
X71061904Y-151845295D01*
X71061904Y-151845295D02*
X71061904Y-151940533D01*
X71061904Y-151940533D02*
X71014285Y-152083390D01*
X71014285Y-152083390D02*
X70442857Y-152654819D01*
X70442857Y-152654819D02*
X71061904Y-152654819D01*
X83657142Y-154754819D02*
X83323809Y-154278628D01*
X83085714Y-154754819D02*
X83085714Y-153754819D01*
X83085714Y-153754819D02*
X83466666Y-153754819D01*
X83466666Y-153754819D02*
X83561904Y-153802438D01*
X83561904Y-153802438D02*
X83609523Y-153850057D01*
X83609523Y-153850057D02*
X83657142Y-153945295D01*
X83657142Y-153945295D02*
X83657142Y-154088152D01*
X83657142Y-154088152D02*
X83609523Y-154183390D01*
X83609523Y-154183390D02*
X83561904Y-154231009D01*
X83561904Y-154231009D02*
X83466666Y-154278628D01*
X83466666Y-154278628D02*
X83085714Y-154278628D01*
X84609523Y-154754819D02*
X84038095Y-154754819D01*
X84323809Y-154754819D02*
X84323809Y-153754819D01*
X84323809Y-153754819D02*
X84228571Y-153897676D01*
X84228571Y-153897676D02*
X84133333Y-153992914D01*
X84133333Y-153992914D02*
X84038095Y-154040533D01*
X85228571Y-153754819D02*
X85323809Y-153754819D01*
X85323809Y-153754819D02*
X85419047Y-153802438D01*
X85419047Y-153802438D02*
X85466666Y-153850057D01*
X85466666Y-153850057D02*
X85514285Y-153945295D01*
X85514285Y-153945295D02*
X85561904Y-154135771D01*
X85561904Y-154135771D02*
X85561904Y-154373866D01*
X85561904Y-154373866D02*
X85514285Y-154564342D01*
X85514285Y-154564342D02*
X85466666Y-154659580D01*
X85466666Y-154659580D02*
X85419047Y-154707200D01*
X85419047Y-154707200D02*
X85323809Y-154754819D01*
X85323809Y-154754819D02*
X85228571Y-154754819D01*
X85228571Y-154754819D02*
X85133333Y-154707200D01*
X85133333Y-154707200D02*
X85085714Y-154659580D01*
X85085714Y-154659580D02*
X85038095Y-154564342D01*
X85038095Y-154564342D02*
X84990476Y-154373866D01*
X84990476Y-154373866D02*
X84990476Y-154135771D01*
X84990476Y-154135771D02*
X85038095Y-153945295D01*
X85038095Y-153945295D02*
X85085714Y-153850057D01*
X85085714Y-153850057D02*
X85133333Y-153802438D01*
X85133333Y-153802438D02*
X85228571Y-153754819D01*
X61804819Y-131738094D02*
X60804819Y-131738094D01*
X60804819Y-131738094D02*
X60804819Y-131499999D01*
X60804819Y-131499999D02*
X60852438Y-131357142D01*
X60852438Y-131357142D02*
X60947676Y-131261904D01*
X60947676Y-131261904D02*
X61042914Y-131214285D01*
X61042914Y-131214285D02*
X61233390Y-131166666D01*
X61233390Y-131166666D02*
X61376247Y-131166666D01*
X61376247Y-131166666D02*
X61566723Y-131214285D01*
X61566723Y-131214285D02*
X61661961Y-131261904D01*
X61661961Y-131261904D02*
X61757200Y-131357142D01*
X61757200Y-131357142D02*
X61804819Y-131499999D01*
X61804819Y-131499999D02*
X61804819Y-131738094D01*
X60804819Y-130309523D02*
X60804819Y-130499999D01*
X60804819Y-130499999D02*
X60852438Y-130595237D01*
X60852438Y-130595237D02*
X60900057Y-130642856D01*
X60900057Y-130642856D02*
X61042914Y-130738094D01*
X61042914Y-130738094D02*
X61233390Y-130785713D01*
X61233390Y-130785713D02*
X61614342Y-130785713D01*
X61614342Y-130785713D02*
X61709580Y-130738094D01*
X61709580Y-130738094D02*
X61757200Y-130690475D01*
X61757200Y-130690475D02*
X61804819Y-130595237D01*
X61804819Y-130595237D02*
X61804819Y-130404761D01*
X61804819Y-130404761D02*
X61757200Y-130309523D01*
X61757200Y-130309523D02*
X61709580Y-130261904D01*
X61709580Y-130261904D02*
X61614342Y-130214285D01*
X61614342Y-130214285D02*
X61376247Y-130214285D01*
X61376247Y-130214285D02*
X61281009Y-130261904D01*
X61281009Y-130261904D02*
X61233390Y-130309523D01*
X61233390Y-130309523D02*
X61185771Y-130404761D01*
X61185771Y-130404761D02*
X61185771Y-130595237D01*
X61185771Y-130595237D02*
X61233390Y-130690475D01*
X61233390Y-130690475D02*
X61281009Y-130738094D01*
X61281009Y-130738094D02*
X61376247Y-130785713D01*
X78359580Y-142916666D02*
X78407200Y-142964285D01*
X78407200Y-142964285D02*
X78454819Y-143107142D01*
X78454819Y-143107142D02*
X78454819Y-143202380D01*
X78454819Y-143202380D02*
X78407200Y-143345237D01*
X78407200Y-143345237D02*
X78311961Y-143440475D01*
X78311961Y-143440475D02*
X78216723Y-143488094D01*
X78216723Y-143488094D02*
X78026247Y-143535713D01*
X78026247Y-143535713D02*
X77883390Y-143535713D01*
X77883390Y-143535713D02*
X77692914Y-143488094D01*
X77692914Y-143488094D02*
X77597676Y-143440475D01*
X77597676Y-143440475D02*
X77502438Y-143345237D01*
X77502438Y-143345237D02*
X77454819Y-143202380D01*
X77454819Y-143202380D02*
X77454819Y-143107142D01*
X77454819Y-143107142D02*
X77502438Y-142964285D01*
X77502438Y-142964285D02*
X77550057Y-142916666D01*
X78454819Y-141964285D02*
X78454819Y-142535713D01*
X78454819Y-142249999D02*
X77454819Y-142249999D01*
X77454819Y-142249999D02*
X77597676Y-142345237D01*
X77597676Y-142345237D02*
X77692914Y-142440475D01*
X77692914Y-142440475D02*
X77740533Y-142535713D01*
X79457142Y-148304819D02*
X79123809Y-147828628D01*
X78885714Y-148304819D02*
X78885714Y-147304819D01*
X78885714Y-147304819D02*
X79266666Y-147304819D01*
X79266666Y-147304819D02*
X79361904Y-147352438D01*
X79361904Y-147352438D02*
X79409523Y-147400057D01*
X79409523Y-147400057D02*
X79457142Y-147495295D01*
X79457142Y-147495295D02*
X79457142Y-147638152D01*
X79457142Y-147638152D02*
X79409523Y-147733390D01*
X79409523Y-147733390D02*
X79361904Y-147781009D01*
X79361904Y-147781009D02*
X79266666Y-147828628D01*
X79266666Y-147828628D02*
X78885714Y-147828628D01*
X79838095Y-147400057D02*
X79885714Y-147352438D01*
X79885714Y-147352438D02*
X79980952Y-147304819D01*
X79980952Y-147304819D02*
X80219047Y-147304819D01*
X80219047Y-147304819D02*
X80314285Y-147352438D01*
X80314285Y-147352438D02*
X80361904Y-147400057D01*
X80361904Y-147400057D02*
X80409523Y-147495295D01*
X80409523Y-147495295D02*
X80409523Y-147590533D01*
X80409523Y-147590533D02*
X80361904Y-147733390D01*
X80361904Y-147733390D02*
X79790476Y-148304819D01*
X79790476Y-148304819D02*
X80409523Y-148304819D01*
X81361904Y-148304819D02*
X80790476Y-148304819D01*
X81076190Y-148304819D02*
X81076190Y-147304819D01*
X81076190Y-147304819D02*
X80980952Y-147447676D01*
X80980952Y-147447676D02*
X80885714Y-147542914D01*
X80885714Y-147542914D02*
X80790476Y-147590533D01*
X66557142Y-125259580D02*
X66509523Y-125307200D01*
X66509523Y-125307200D02*
X66366666Y-125354819D01*
X66366666Y-125354819D02*
X66271428Y-125354819D01*
X66271428Y-125354819D02*
X66128571Y-125307200D01*
X66128571Y-125307200D02*
X66033333Y-125211961D01*
X66033333Y-125211961D02*
X65985714Y-125116723D01*
X65985714Y-125116723D02*
X65938095Y-124926247D01*
X65938095Y-124926247D02*
X65938095Y-124783390D01*
X65938095Y-124783390D02*
X65985714Y-124592914D01*
X65985714Y-124592914D02*
X66033333Y-124497676D01*
X66033333Y-124497676D02*
X66128571Y-124402438D01*
X66128571Y-124402438D02*
X66271428Y-124354819D01*
X66271428Y-124354819D02*
X66366666Y-124354819D01*
X66366666Y-124354819D02*
X66509523Y-124402438D01*
X66509523Y-124402438D02*
X66557142Y-124450057D01*
X67509523Y-125354819D02*
X66938095Y-125354819D01*
X67223809Y-125354819D02*
X67223809Y-124354819D01*
X67223809Y-124354819D02*
X67128571Y-124497676D01*
X67128571Y-124497676D02*
X67033333Y-124592914D01*
X67033333Y-124592914D02*
X66938095Y-124640533D01*
X68128571Y-124354819D02*
X68223809Y-124354819D01*
X68223809Y-124354819D02*
X68319047Y-124402438D01*
X68319047Y-124402438D02*
X68366666Y-124450057D01*
X68366666Y-124450057D02*
X68414285Y-124545295D01*
X68414285Y-124545295D02*
X68461904Y-124735771D01*
X68461904Y-124735771D02*
X68461904Y-124973866D01*
X68461904Y-124973866D02*
X68414285Y-125164342D01*
X68414285Y-125164342D02*
X68366666Y-125259580D01*
X68366666Y-125259580D02*
X68319047Y-125307200D01*
X68319047Y-125307200D02*
X68223809Y-125354819D01*
X68223809Y-125354819D02*
X68128571Y-125354819D01*
X68128571Y-125354819D02*
X68033333Y-125307200D01*
X68033333Y-125307200D02*
X67985714Y-125259580D01*
X67985714Y-125259580D02*
X67938095Y-125164342D01*
X67938095Y-125164342D02*
X67890476Y-124973866D01*
X67890476Y-124973866D02*
X67890476Y-124735771D01*
X67890476Y-124735771D02*
X67938095Y-124545295D01*
X67938095Y-124545295D02*
X67985714Y-124450057D01*
X67985714Y-124450057D02*
X68033333Y-124402438D01*
X68033333Y-124402438D02*
X68128571Y-124354819D01*
D12*
X92704318Y-154723332D02*
X93611461Y-154723332D01*
X93611461Y-154723332D02*
X93792889Y-154783809D01*
X93792889Y-154783809D02*
X93913842Y-154904761D01*
X93913842Y-154904761D02*
X93974318Y-155086190D01*
X93974318Y-155086190D02*
X93974318Y-155207142D01*
X92704318Y-154239523D02*
X92704318Y-153453332D01*
X92704318Y-153453332D02*
X93188127Y-153876666D01*
X93188127Y-153876666D02*
X93188127Y-153695237D01*
X93188127Y-153695237D02*
X93248603Y-153574285D01*
X93248603Y-153574285D02*
X93309080Y-153513809D01*
X93309080Y-153513809D02*
X93430032Y-153453332D01*
X93430032Y-153453332D02*
X93732413Y-153453332D01*
X93732413Y-153453332D02*
X93853365Y-153513809D01*
X93853365Y-153513809D02*
X93913842Y-153574285D01*
X93913842Y-153574285D02*
X93974318Y-153695237D01*
X93974318Y-153695237D02*
X93974318Y-154058094D01*
X93974318Y-154058094D02*
X93913842Y-154179047D01*
X93913842Y-154179047D02*
X93853365Y-154239523D01*
D11*
X61804819Y-145738094D02*
X60804819Y-145738094D01*
X60804819Y-145738094D02*
X60804819Y-145499999D01*
X60804819Y-145499999D02*
X60852438Y-145357142D01*
X60852438Y-145357142D02*
X60947676Y-145261904D01*
X60947676Y-145261904D02*
X61042914Y-145214285D01*
X61042914Y-145214285D02*
X61233390Y-145166666D01*
X61233390Y-145166666D02*
X61376247Y-145166666D01*
X61376247Y-145166666D02*
X61566723Y-145214285D01*
X61566723Y-145214285D02*
X61661961Y-145261904D01*
X61661961Y-145261904D02*
X61757200Y-145357142D01*
X61757200Y-145357142D02*
X61804819Y-145499999D01*
X61804819Y-145499999D02*
X61804819Y-145738094D01*
X61233390Y-144595237D02*
X61185771Y-144690475D01*
X61185771Y-144690475D02*
X61138152Y-144738094D01*
X61138152Y-144738094D02*
X61042914Y-144785713D01*
X61042914Y-144785713D02*
X60995295Y-144785713D01*
X60995295Y-144785713D02*
X60900057Y-144738094D01*
X60900057Y-144738094D02*
X60852438Y-144690475D01*
X60852438Y-144690475D02*
X60804819Y-144595237D01*
X60804819Y-144595237D02*
X60804819Y-144404761D01*
X60804819Y-144404761D02*
X60852438Y-144309523D01*
X60852438Y-144309523D02*
X60900057Y-144261904D01*
X60900057Y-144261904D02*
X60995295Y-144214285D01*
X60995295Y-144214285D02*
X61042914Y-144214285D01*
X61042914Y-144214285D02*
X61138152Y-144261904D01*
X61138152Y-144261904D02*
X61185771Y-144309523D01*
X61185771Y-144309523D02*
X61233390Y-144404761D01*
X61233390Y-144404761D02*
X61233390Y-144595237D01*
X61233390Y-144595237D02*
X61281009Y-144690475D01*
X61281009Y-144690475D02*
X61328628Y-144738094D01*
X61328628Y-144738094D02*
X61423866Y-144785713D01*
X61423866Y-144785713D02*
X61614342Y-144785713D01*
X61614342Y-144785713D02*
X61709580Y-144738094D01*
X61709580Y-144738094D02*
X61757200Y-144690475D01*
X61757200Y-144690475D02*
X61804819Y-144595237D01*
X61804819Y-144595237D02*
X61804819Y-144404761D01*
X61804819Y-144404761D02*
X61757200Y-144309523D01*
X61757200Y-144309523D02*
X61709580Y-144261904D01*
X61709580Y-144261904D02*
X61614342Y-144214285D01*
X61614342Y-144214285D02*
X61423866Y-144214285D01*
X61423866Y-144214285D02*
X61328628Y-144261904D01*
X61328628Y-144261904D02*
X61281009Y-144309523D01*
X61281009Y-144309523D02*
X61233390Y-144404761D01*
X84454819Y-159761904D02*
X85264342Y-159761904D01*
X85264342Y-159761904D02*
X85359580Y-159714285D01*
X85359580Y-159714285D02*
X85407200Y-159666666D01*
X85407200Y-159666666D02*
X85454819Y-159571428D01*
X85454819Y-159571428D02*
X85454819Y-159380952D01*
X85454819Y-159380952D02*
X85407200Y-159285714D01*
X85407200Y-159285714D02*
X85359580Y-159238095D01*
X85359580Y-159238095D02*
X85264342Y-159190476D01*
X85264342Y-159190476D02*
X84454819Y-159190476D01*
X84550057Y-158761904D02*
X84502438Y-158714285D01*
X84502438Y-158714285D02*
X84454819Y-158619047D01*
X84454819Y-158619047D02*
X84454819Y-158380952D01*
X84454819Y-158380952D02*
X84502438Y-158285714D01*
X84502438Y-158285714D02*
X84550057Y-158238095D01*
X84550057Y-158238095D02*
X84645295Y-158190476D01*
X84645295Y-158190476D02*
X84740533Y-158190476D01*
X84740533Y-158190476D02*
X84883390Y-158238095D01*
X84883390Y-158238095D02*
X85454819Y-158809523D01*
X85454819Y-158809523D02*
X85454819Y-158190476D01*
X64338095Y-160754819D02*
X64338095Y-161564342D01*
X64338095Y-161564342D02*
X64385714Y-161659580D01*
X64385714Y-161659580D02*
X64433333Y-161707200D01*
X64433333Y-161707200D02*
X64528571Y-161754819D01*
X64528571Y-161754819D02*
X64719047Y-161754819D01*
X64719047Y-161754819D02*
X64814285Y-161707200D01*
X64814285Y-161707200D02*
X64861904Y-161659580D01*
X64861904Y-161659580D02*
X64909523Y-161564342D01*
X64909523Y-161564342D02*
X64909523Y-160754819D01*
X65861904Y-160754819D02*
X65385714Y-160754819D01*
X65385714Y-160754819D02*
X65338095Y-161231009D01*
X65338095Y-161231009D02*
X65385714Y-161183390D01*
X65385714Y-161183390D02*
X65480952Y-161135771D01*
X65480952Y-161135771D02*
X65719047Y-161135771D01*
X65719047Y-161135771D02*
X65814285Y-161183390D01*
X65814285Y-161183390D02*
X65861904Y-161231009D01*
X65861904Y-161231009D02*
X65909523Y-161326247D01*
X65909523Y-161326247D02*
X65909523Y-161564342D01*
X65909523Y-161564342D02*
X65861904Y-161659580D01*
X65861904Y-161659580D02*
X65814285Y-161707200D01*
X65814285Y-161707200D02*
X65719047Y-161754819D01*
X65719047Y-161754819D02*
X65480952Y-161754819D01*
X65480952Y-161754819D02*
X65385714Y-161707200D01*
X65385714Y-161707200D02*
X65338095Y-161659580D01*
X65104819Y-145642857D02*
X64628628Y-145976190D01*
X65104819Y-146214285D02*
X64104819Y-146214285D01*
X64104819Y-146214285D02*
X64104819Y-145833333D01*
X64104819Y-145833333D02*
X64152438Y-145738095D01*
X64152438Y-145738095D02*
X64200057Y-145690476D01*
X64200057Y-145690476D02*
X64295295Y-145642857D01*
X64295295Y-145642857D02*
X64438152Y-145642857D01*
X64438152Y-145642857D02*
X64533390Y-145690476D01*
X64533390Y-145690476D02*
X64581009Y-145738095D01*
X64581009Y-145738095D02*
X64628628Y-145833333D01*
X64628628Y-145833333D02*
X64628628Y-146214285D01*
X65104819Y-144690476D02*
X65104819Y-145261904D01*
X65104819Y-144976190D02*
X64104819Y-144976190D01*
X64104819Y-144976190D02*
X64247676Y-145071428D01*
X64247676Y-145071428D02*
X64342914Y-145166666D01*
X64342914Y-145166666D02*
X64390533Y-145261904D01*
X64104819Y-144357142D02*
X64104819Y-143738095D01*
X64104819Y-143738095D02*
X64485771Y-144071428D01*
X64485771Y-144071428D02*
X64485771Y-143928571D01*
X64485771Y-143928571D02*
X64533390Y-143833333D01*
X64533390Y-143833333D02*
X64581009Y-143785714D01*
X64581009Y-143785714D02*
X64676247Y-143738095D01*
X64676247Y-143738095D02*
X64914342Y-143738095D01*
X64914342Y-143738095D02*
X65009580Y-143785714D01*
X65009580Y-143785714D02*
X65057200Y-143833333D01*
X65057200Y-143833333D02*
X65104819Y-143928571D01*
X65104819Y-143928571D02*
X65104819Y-144214285D01*
X65104819Y-144214285D02*
X65057200Y-144309523D01*
X65057200Y-144309523D02*
X65009580Y-144357142D01*
X85333333Y-133954819D02*
X85000000Y-133478628D01*
X84761905Y-133954819D02*
X84761905Y-132954819D01*
X84761905Y-132954819D02*
X85142857Y-132954819D01*
X85142857Y-132954819D02*
X85238095Y-133002438D01*
X85238095Y-133002438D02*
X85285714Y-133050057D01*
X85285714Y-133050057D02*
X85333333Y-133145295D01*
X85333333Y-133145295D02*
X85333333Y-133288152D01*
X85333333Y-133288152D02*
X85285714Y-133383390D01*
X85285714Y-133383390D02*
X85238095Y-133431009D01*
X85238095Y-133431009D02*
X85142857Y-133478628D01*
X85142857Y-133478628D02*
X84761905Y-133478628D01*
X86190476Y-132954819D02*
X86000000Y-132954819D01*
X86000000Y-132954819D02*
X85904762Y-133002438D01*
X85904762Y-133002438D02*
X85857143Y-133050057D01*
X85857143Y-133050057D02*
X85761905Y-133192914D01*
X85761905Y-133192914D02*
X85714286Y-133383390D01*
X85714286Y-133383390D02*
X85714286Y-133764342D01*
X85714286Y-133764342D02*
X85761905Y-133859580D01*
X85761905Y-133859580D02*
X85809524Y-133907200D01*
X85809524Y-133907200D02*
X85904762Y-133954819D01*
X85904762Y-133954819D02*
X86095238Y-133954819D01*
X86095238Y-133954819D02*
X86190476Y-133907200D01*
X86190476Y-133907200D02*
X86238095Y-133859580D01*
X86238095Y-133859580D02*
X86285714Y-133764342D01*
X86285714Y-133764342D02*
X86285714Y-133526247D01*
X86285714Y-133526247D02*
X86238095Y-133431009D01*
X86238095Y-133431009D02*
X86190476Y-133383390D01*
X86190476Y-133383390D02*
X86095238Y-133335771D01*
X86095238Y-133335771D02*
X85904762Y-133335771D01*
X85904762Y-133335771D02*
X85809524Y-133383390D01*
X85809524Y-133383390D02*
X85761905Y-133431009D01*
X85761905Y-133431009D02*
X85714286Y-133526247D01*
X75033333Y-145354819D02*
X74700000Y-144878628D01*
X74461905Y-145354819D02*
X74461905Y-144354819D01*
X74461905Y-144354819D02*
X74842857Y-144354819D01*
X74842857Y-144354819D02*
X74938095Y-144402438D01*
X74938095Y-144402438D02*
X74985714Y-144450057D01*
X74985714Y-144450057D02*
X75033333Y-144545295D01*
X75033333Y-144545295D02*
X75033333Y-144688152D01*
X75033333Y-144688152D02*
X74985714Y-144783390D01*
X74985714Y-144783390D02*
X74938095Y-144831009D01*
X74938095Y-144831009D02*
X74842857Y-144878628D01*
X74842857Y-144878628D02*
X74461905Y-144878628D01*
X75414286Y-144450057D02*
X75461905Y-144402438D01*
X75461905Y-144402438D02*
X75557143Y-144354819D01*
X75557143Y-144354819D02*
X75795238Y-144354819D01*
X75795238Y-144354819D02*
X75890476Y-144402438D01*
X75890476Y-144402438D02*
X75938095Y-144450057D01*
X75938095Y-144450057D02*
X75985714Y-144545295D01*
X75985714Y-144545295D02*
X75985714Y-144640533D01*
X75985714Y-144640533D02*
X75938095Y-144783390D01*
X75938095Y-144783390D02*
X75366667Y-145354819D01*
X75366667Y-145354819D02*
X75985714Y-145354819D01*
X83357142Y-148304819D02*
X83023809Y-147828628D01*
X82785714Y-148304819D02*
X82785714Y-147304819D01*
X82785714Y-147304819D02*
X83166666Y-147304819D01*
X83166666Y-147304819D02*
X83261904Y-147352438D01*
X83261904Y-147352438D02*
X83309523Y-147400057D01*
X83309523Y-147400057D02*
X83357142Y-147495295D01*
X83357142Y-147495295D02*
X83357142Y-147638152D01*
X83357142Y-147638152D02*
X83309523Y-147733390D01*
X83309523Y-147733390D02*
X83261904Y-147781009D01*
X83261904Y-147781009D02*
X83166666Y-147828628D01*
X83166666Y-147828628D02*
X82785714Y-147828628D01*
X84309523Y-148304819D02*
X83738095Y-148304819D01*
X84023809Y-148304819D02*
X84023809Y-147304819D01*
X84023809Y-147304819D02*
X83928571Y-147447676D01*
X83928571Y-147447676D02*
X83833333Y-147542914D01*
X83833333Y-147542914D02*
X83738095Y-147590533D01*
X85261904Y-148304819D02*
X84690476Y-148304819D01*
X84976190Y-148304819D02*
X84976190Y-147304819D01*
X84976190Y-147304819D02*
X84880952Y-147447676D01*
X84880952Y-147447676D02*
X84785714Y-147542914D01*
X84785714Y-147542914D02*
X84690476Y-147590533D01*
X75757142Y-169904819D02*
X75423809Y-169428628D01*
X75185714Y-169904819D02*
X75185714Y-168904819D01*
X75185714Y-168904819D02*
X75566666Y-168904819D01*
X75566666Y-168904819D02*
X75661904Y-168952438D01*
X75661904Y-168952438D02*
X75709523Y-169000057D01*
X75709523Y-169000057D02*
X75757142Y-169095295D01*
X75757142Y-169095295D02*
X75757142Y-169238152D01*
X75757142Y-169238152D02*
X75709523Y-169333390D01*
X75709523Y-169333390D02*
X75661904Y-169381009D01*
X75661904Y-169381009D02*
X75566666Y-169428628D01*
X75566666Y-169428628D02*
X75185714Y-169428628D01*
X76138095Y-169000057D02*
X76185714Y-168952438D01*
X76185714Y-168952438D02*
X76280952Y-168904819D01*
X76280952Y-168904819D02*
X76519047Y-168904819D01*
X76519047Y-168904819D02*
X76614285Y-168952438D01*
X76614285Y-168952438D02*
X76661904Y-169000057D01*
X76661904Y-169000057D02*
X76709523Y-169095295D01*
X76709523Y-169095295D02*
X76709523Y-169190533D01*
X76709523Y-169190533D02*
X76661904Y-169333390D01*
X76661904Y-169333390D02*
X76090476Y-169904819D01*
X76090476Y-169904819D02*
X76709523Y-169904819D01*
X77042857Y-168904819D02*
X77661904Y-168904819D01*
X77661904Y-168904819D02*
X77328571Y-169285771D01*
X77328571Y-169285771D02*
X77471428Y-169285771D01*
X77471428Y-169285771D02*
X77566666Y-169333390D01*
X77566666Y-169333390D02*
X77614285Y-169381009D01*
X77614285Y-169381009D02*
X77661904Y-169476247D01*
X77661904Y-169476247D02*
X77661904Y-169714342D01*
X77661904Y-169714342D02*
X77614285Y-169809580D01*
X77614285Y-169809580D02*
X77566666Y-169857200D01*
X77566666Y-169857200D02*
X77471428Y-169904819D01*
X77471428Y-169904819D02*
X77185714Y-169904819D01*
X77185714Y-169904819D02*
X77090476Y-169857200D01*
X77090476Y-169857200D02*
X77042857Y-169809580D01*
X71866666Y-173654819D02*
X71866666Y-174369104D01*
X71866666Y-174369104D02*
X71819047Y-174511961D01*
X71819047Y-174511961D02*
X71723809Y-174607200D01*
X71723809Y-174607200D02*
X71580952Y-174654819D01*
X71580952Y-174654819D02*
X71485714Y-174654819D01*
X72819047Y-173654819D02*
X72342857Y-173654819D01*
X72342857Y-173654819D02*
X72295238Y-174131009D01*
X72295238Y-174131009D02*
X72342857Y-174083390D01*
X72342857Y-174083390D02*
X72438095Y-174035771D01*
X72438095Y-174035771D02*
X72676190Y-174035771D01*
X72676190Y-174035771D02*
X72771428Y-174083390D01*
X72771428Y-174083390D02*
X72819047Y-174131009D01*
X72819047Y-174131009D02*
X72866666Y-174226247D01*
X72866666Y-174226247D02*
X72866666Y-174464342D01*
X72866666Y-174464342D02*
X72819047Y-174559580D01*
X72819047Y-174559580D02*
X72771428Y-174607200D01*
X72771428Y-174607200D02*
X72676190Y-174654819D01*
X72676190Y-174654819D02*
X72438095Y-174654819D01*
X72438095Y-174654819D02*
X72342857Y-174607200D01*
X72342857Y-174607200D02*
X72295238Y-174559580D01*
X69604819Y-177642857D02*
X69128628Y-177976190D01*
X69604819Y-178214285D02*
X68604819Y-178214285D01*
X68604819Y-178214285D02*
X68604819Y-177833333D01*
X68604819Y-177833333D02*
X68652438Y-177738095D01*
X68652438Y-177738095D02*
X68700057Y-177690476D01*
X68700057Y-177690476D02*
X68795295Y-177642857D01*
X68795295Y-177642857D02*
X68938152Y-177642857D01*
X68938152Y-177642857D02*
X69033390Y-177690476D01*
X69033390Y-177690476D02*
X69081009Y-177738095D01*
X69081009Y-177738095D02*
X69128628Y-177833333D01*
X69128628Y-177833333D02*
X69128628Y-178214285D01*
X69604819Y-176690476D02*
X69604819Y-177261904D01*
X69604819Y-176976190D02*
X68604819Y-176976190D01*
X68604819Y-176976190D02*
X68747676Y-177071428D01*
X68747676Y-177071428D02*
X68842914Y-177166666D01*
X68842914Y-177166666D02*
X68890533Y-177261904D01*
X68604819Y-175833333D02*
X68604819Y-176023809D01*
X68604819Y-176023809D02*
X68652438Y-176119047D01*
X68652438Y-176119047D02*
X68700057Y-176166666D01*
X68700057Y-176166666D02*
X68842914Y-176261904D01*
X68842914Y-176261904D02*
X69033390Y-176309523D01*
X69033390Y-176309523D02*
X69414342Y-176309523D01*
X69414342Y-176309523D02*
X69509580Y-176261904D01*
X69509580Y-176261904D02*
X69557200Y-176214285D01*
X69557200Y-176214285D02*
X69604819Y-176119047D01*
X69604819Y-176119047D02*
X69604819Y-175928571D01*
X69604819Y-175928571D02*
X69557200Y-175833333D01*
X69557200Y-175833333D02*
X69509580Y-175785714D01*
X69509580Y-175785714D02*
X69414342Y-175738095D01*
X69414342Y-175738095D02*
X69176247Y-175738095D01*
X69176247Y-175738095D02*
X69081009Y-175785714D01*
X69081009Y-175785714D02*
X69033390Y-175833333D01*
X69033390Y-175833333D02*
X68985771Y-175928571D01*
X68985771Y-175928571D02*
X68985771Y-176119047D01*
X68985771Y-176119047D02*
X69033390Y-176214285D01*
X69033390Y-176214285D02*
X69081009Y-176261904D01*
X69081009Y-176261904D02*
X69176247Y-176309523D01*
X65104819Y-132866666D02*
X64628628Y-133199999D01*
X65104819Y-133438094D02*
X64104819Y-133438094D01*
X64104819Y-133438094D02*
X64104819Y-133057142D01*
X64104819Y-133057142D02*
X64152438Y-132961904D01*
X64152438Y-132961904D02*
X64200057Y-132914285D01*
X64200057Y-132914285D02*
X64295295Y-132866666D01*
X64295295Y-132866666D02*
X64438152Y-132866666D01*
X64438152Y-132866666D02*
X64533390Y-132914285D01*
X64533390Y-132914285D02*
X64581009Y-132961904D01*
X64581009Y-132961904D02*
X64628628Y-133057142D01*
X64628628Y-133057142D02*
X64628628Y-133438094D01*
X64104819Y-131961904D02*
X64104819Y-132438094D01*
X64104819Y-132438094D02*
X64581009Y-132485713D01*
X64581009Y-132485713D02*
X64533390Y-132438094D01*
X64533390Y-132438094D02*
X64485771Y-132342856D01*
X64485771Y-132342856D02*
X64485771Y-132104761D01*
X64485771Y-132104761D02*
X64533390Y-132009523D01*
X64533390Y-132009523D02*
X64581009Y-131961904D01*
X64581009Y-131961904D02*
X64676247Y-131914285D01*
X64676247Y-131914285D02*
X64914342Y-131914285D01*
X64914342Y-131914285D02*
X65009580Y-131961904D01*
X65009580Y-131961904D02*
X65057200Y-132009523D01*
X65057200Y-132009523D02*
X65104819Y-132104761D01*
X65104819Y-132104761D02*
X65104819Y-132342856D01*
X65104819Y-132342856D02*
X65057200Y-132438094D01*
X65057200Y-132438094D02*
X65009580Y-132485713D01*
X79238095Y-102404819D02*
X79238095Y-103214342D01*
X79238095Y-103214342D02*
X79285714Y-103309580D01*
X79285714Y-103309580D02*
X79333333Y-103357200D01*
X79333333Y-103357200D02*
X79428571Y-103404819D01*
X79428571Y-103404819D02*
X79619047Y-103404819D01*
X79619047Y-103404819D02*
X79714285Y-103357200D01*
X79714285Y-103357200D02*
X79761904Y-103309580D01*
X79761904Y-103309580D02*
X79809523Y-103214342D01*
X79809523Y-103214342D02*
X79809523Y-102404819D01*
X80714285Y-102738152D02*
X80714285Y-103404819D01*
X80476190Y-102357200D02*
X80238095Y-103071485D01*
X80238095Y-103071485D02*
X80857142Y-103071485D01*
X75238094Y-107419104D02*
X75714284Y-107419104D01*
X75142856Y-107704819D02*
X75476189Y-106704819D01*
X75476189Y-106704819D02*
X75809522Y-107704819D01*
X76142856Y-107038152D02*
X76142856Y-107704819D01*
X76142856Y-107133390D02*
X76190475Y-107085771D01*
X76190475Y-107085771D02*
X76285713Y-107038152D01*
X76285713Y-107038152D02*
X76428570Y-107038152D01*
X76428570Y-107038152D02*
X76523808Y-107085771D01*
X76523808Y-107085771D02*
X76571427Y-107181009D01*
X76571427Y-107181009D02*
X76571427Y-107704819D01*
X76904761Y-107038152D02*
X77285713Y-107038152D01*
X77047618Y-106704819D02*
X77047618Y-107561961D01*
X77047618Y-107561961D02*
X77095237Y-107657200D01*
X77095237Y-107657200D02*
X77190475Y-107704819D01*
X77190475Y-107704819D02*
X77285713Y-107704819D01*
X77999999Y-107657200D02*
X77904761Y-107704819D01*
X77904761Y-107704819D02*
X77714285Y-107704819D01*
X77714285Y-107704819D02*
X77619047Y-107657200D01*
X77619047Y-107657200D02*
X77571428Y-107561961D01*
X77571428Y-107561961D02*
X77571428Y-107181009D01*
X77571428Y-107181009D02*
X77619047Y-107085771D01*
X77619047Y-107085771D02*
X77714285Y-107038152D01*
X77714285Y-107038152D02*
X77904761Y-107038152D01*
X77904761Y-107038152D02*
X77999999Y-107085771D01*
X77999999Y-107085771D02*
X78047618Y-107181009D01*
X78047618Y-107181009D02*
X78047618Y-107276247D01*
X78047618Y-107276247D02*
X77571428Y-107371485D01*
X78476190Y-107038152D02*
X78476190Y-107704819D01*
X78476190Y-107133390D02*
X78523809Y-107085771D01*
X78523809Y-107085771D02*
X78619047Y-107038152D01*
X78619047Y-107038152D02*
X78761904Y-107038152D01*
X78761904Y-107038152D02*
X78857142Y-107085771D01*
X78857142Y-107085771D02*
X78904761Y-107181009D01*
X78904761Y-107181009D02*
X78904761Y-107704819D01*
X79380952Y-107038152D02*
X79380952Y-107704819D01*
X79380952Y-107133390D02*
X79428571Y-107085771D01*
X79428571Y-107085771D02*
X79523809Y-107038152D01*
X79523809Y-107038152D02*
X79666666Y-107038152D01*
X79666666Y-107038152D02*
X79761904Y-107085771D01*
X79761904Y-107085771D02*
X79809523Y-107181009D01*
X79809523Y-107181009D02*
X79809523Y-107704819D01*
X80714285Y-107704819D02*
X80714285Y-107181009D01*
X80714285Y-107181009D02*
X80666666Y-107085771D01*
X80666666Y-107085771D02*
X80571428Y-107038152D01*
X80571428Y-107038152D02*
X80380952Y-107038152D01*
X80380952Y-107038152D02*
X80285714Y-107085771D01*
X80714285Y-107657200D02*
X80619047Y-107704819D01*
X80619047Y-107704819D02*
X80380952Y-107704819D01*
X80380952Y-107704819D02*
X80285714Y-107657200D01*
X80285714Y-107657200D02*
X80238095Y-107561961D01*
X80238095Y-107561961D02*
X80238095Y-107466723D01*
X80238095Y-107466723D02*
X80285714Y-107371485D01*
X80285714Y-107371485D02*
X80380952Y-107323866D01*
X80380952Y-107323866D02*
X80619047Y-107323866D01*
X80619047Y-107323866D02*
X80714285Y-107276247D01*
X81904762Y-107419104D02*
X82380952Y-107419104D01*
X81809524Y-107704819D02*
X82142857Y-106704819D01*
X82142857Y-106704819D02*
X82476190Y-107704819D01*
X82809524Y-107704819D02*
X82809524Y-107038152D01*
X82809524Y-107228628D02*
X82857143Y-107133390D01*
X82857143Y-107133390D02*
X82904762Y-107085771D01*
X82904762Y-107085771D02*
X83000000Y-107038152D01*
X83000000Y-107038152D02*
X83095238Y-107038152D01*
X83809524Y-107657200D02*
X83714286Y-107704819D01*
X83714286Y-107704819D02*
X83523810Y-107704819D01*
X83523810Y-107704819D02*
X83428572Y-107657200D01*
X83428572Y-107657200D02*
X83380953Y-107561961D01*
X83380953Y-107561961D02*
X83380953Y-107181009D01*
X83380953Y-107181009D02*
X83428572Y-107085771D01*
X83428572Y-107085771D02*
X83523810Y-107038152D01*
X83523810Y-107038152D02*
X83714286Y-107038152D01*
X83714286Y-107038152D02*
X83809524Y-107085771D01*
X83809524Y-107085771D02*
X83857143Y-107181009D01*
X83857143Y-107181009D02*
X83857143Y-107276247D01*
X83857143Y-107276247D02*
X83380953Y-107371485D01*
X84714286Y-107704819D02*
X84714286Y-107181009D01*
X84714286Y-107181009D02*
X84666667Y-107085771D01*
X84666667Y-107085771D02*
X84571429Y-107038152D01*
X84571429Y-107038152D02*
X84380953Y-107038152D01*
X84380953Y-107038152D02*
X84285715Y-107085771D01*
X84714286Y-107657200D02*
X84619048Y-107704819D01*
X84619048Y-107704819D02*
X84380953Y-107704819D01*
X84380953Y-107704819D02*
X84285715Y-107657200D01*
X84285715Y-107657200D02*
X84238096Y-107561961D01*
X84238096Y-107561961D02*
X84238096Y-107466723D01*
X84238096Y-107466723D02*
X84285715Y-107371485D01*
X84285715Y-107371485D02*
X84380953Y-107323866D01*
X84380953Y-107323866D02*
X84619048Y-107323866D01*
X84619048Y-107323866D02*
X84714286Y-107276247D01*
X91354819Y-177642857D02*
X90878628Y-177976190D01*
X91354819Y-178214285D02*
X90354819Y-178214285D01*
X90354819Y-178214285D02*
X90354819Y-177833333D01*
X90354819Y-177833333D02*
X90402438Y-177738095D01*
X90402438Y-177738095D02*
X90450057Y-177690476D01*
X90450057Y-177690476D02*
X90545295Y-177642857D01*
X90545295Y-177642857D02*
X90688152Y-177642857D01*
X90688152Y-177642857D02*
X90783390Y-177690476D01*
X90783390Y-177690476D02*
X90831009Y-177738095D01*
X90831009Y-177738095D02*
X90878628Y-177833333D01*
X90878628Y-177833333D02*
X90878628Y-178214285D01*
X91354819Y-176690476D02*
X91354819Y-177261904D01*
X91354819Y-176976190D02*
X90354819Y-176976190D01*
X90354819Y-176976190D02*
X90497676Y-177071428D01*
X90497676Y-177071428D02*
X90592914Y-177166666D01*
X90592914Y-177166666D02*
X90640533Y-177261904D01*
X90354819Y-175785714D02*
X90354819Y-176261904D01*
X90354819Y-176261904D02*
X90831009Y-176309523D01*
X90831009Y-176309523D02*
X90783390Y-176261904D01*
X90783390Y-176261904D02*
X90735771Y-176166666D01*
X90735771Y-176166666D02*
X90735771Y-175928571D01*
X90735771Y-175928571D02*
X90783390Y-175833333D01*
X90783390Y-175833333D02*
X90831009Y-175785714D01*
X90831009Y-175785714D02*
X90926247Y-175738095D01*
X90926247Y-175738095D02*
X91164342Y-175738095D01*
X91164342Y-175738095D02*
X91259580Y-175785714D01*
X91259580Y-175785714D02*
X91307200Y-175833333D01*
X91307200Y-175833333D02*
X91354819Y-175928571D01*
X91354819Y-175928571D02*
X91354819Y-176166666D01*
X91354819Y-176166666D02*
X91307200Y-176261904D01*
X91307200Y-176261904D02*
X91259580Y-176309523D01*
X69939580Y-114666666D02*
X69987200Y-114714285D01*
X69987200Y-114714285D02*
X70034819Y-114857142D01*
X70034819Y-114857142D02*
X70034819Y-114952380D01*
X70034819Y-114952380D02*
X69987200Y-115095237D01*
X69987200Y-115095237D02*
X69891961Y-115190475D01*
X69891961Y-115190475D02*
X69796723Y-115238094D01*
X69796723Y-115238094D02*
X69606247Y-115285713D01*
X69606247Y-115285713D02*
X69463390Y-115285713D01*
X69463390Y-115285713D02*
X69272914Y-115238094D01*
X69272914Y-115238094D02*
X69177676Y-115190475D01*
X69177676Y-115190475D02*
X69082438Y-115095237D01*
X69082438Y-115095237D02*
X69034819Y-114952380D01*
X69034819Y-114952380D02*
X69034819Y-114857142D01*
X69034819Y-114857142D02*
X69082438Y-114714285D01*
X69082438Y-114714285D02*
X69130057Y-114666666D01*
X70034819Y-114190475D02*
X70034819Y-113999999D01*
X70034819Y-113999999D02*
X69987200Y-113904761D01*
X69987200Y-113904761D02*
X69939580Y-113857142D01*
X69939580Y-113857142D02*
X69796723Y-113761904D01*
X69796723Y-113761904D02*
X69606247Y-113714285D01*
X69606247Y-113714285D02*
X69225295Y-113714285D01*
X69225295Y-113714285D02*
X69130057Y-113761904D01*
X69130057Y-113761904D02*
X69082438Y-113809523D01*
X69082438Y-113809523D02*
X69034819Y-113904761D01*
X69034819Y-113904761D02*
X69034819Y-114095237D01*
X69034819Y-114095237D02*
X69082438Y-114190475D01*
X69082438Y-114190475D02*
X69130057Y-114238094D01*
X69130057Y-114238094D02*
X69225295Y-114285713D01*
X69225295Y-114285713D02*
X69463390Y-114285713D01*
X69463390Y-114285713D02*
X69558628Y-114238094D01*
X69558628Y-114238094D02*
X69606247Y-114190475D01*
X69606247Y-114190475D02*
X69653866Y-114095237D01*
X69653866Y-114095237D02*
X69653866Y-113904761D01*
X69653866Y-113904761D02*
X69606247Y-113809523D01*
X69606247Y-113809523D02*
X69558628Y-113761904D01*
X69558628Y-113761904D02*
X69463390Y-113714285D01*
X68404819Y-136966666D02*
X67928628Y-137299999D01*
X68404819Y-137538094D02*
X67404819Y-137538094D01*
X67404819Y-137538094D02*
X67404819Y-137157142D01*
X67404819Y-137157142D02*
X67452438Y-137061904D01*
X67452438Y-137061904D02*
X67500057Y-137014285D01*
X67500057Y-137014285D02*
X67595295Y-136966666D01*
X67595295Y-136966666D02*
X67738152Y-136966666D01*
X67738152Y-136966666D02*
X67833390Y-137014285D01*
X67833390Y-137014285D02*
X67881009Y-137061904D01*
X67881009Y-137061904D02*
X67928628Y-137157142D01*
X67928628Y-137157142D02*
X67928628Y-137538094D01*
X67738152Y-136109523D02*
X68404819Y-136109523D01*
X67357200Y-136347618D02*
X68071485Y-136585713D01*
X68071485Y-136585713D02*
X68071485Y-135966666D01*
X66557142Y-122854819D02*
X66223809Y-122378628D01*
X65985714Y-122854819D02*
X65985714Y-121854819D01*
X65985714Y-121854819D02*
X66366666Y-121854819D01*
X66366666Y-121854819D02*
X66461904Y-121902438D01*
X66461904Y-121902438D02*
X66509523Y-121950057D01*
X66509523Y-121950057D02*
X66557142Y-122045295D01*
X66557142Y-122045295D02*
X66557142Y-122188152D01*
X66557142Y-122188152D02*
X66509523Y-122283390D01*
X66509523Y-122283390D02*
X66461904Y-122331009D01*
X66461904Y-122331009D02*
X66366666Y-122378628D01*
X66366666Y-122378628D02*
X65985714Y-122378628D01*
X67509523Y-122854819D02*
X66938095Y-122854819D01*
X67223809Y-122854819D02*
X67223809Y-121854819D01*
X67223809Y-121854819D02*
X67128571Y-121997676D01*
X67128571Y-121997676D02*
X67033333Y-122092914D01*
X67033333Y-122092914D02*
X66938095Y-122140533D01*
X67842857Y-121854819D02*
X68509523Y-121854819D01*
X68509523Y-121854819D02*
X68080952Y-122854819D01*
D12*
X93304318Y-172423332D02*
X94211461Y-172423332D01*
X94211461Y-172423332D02*
X94392889Y-172483809D01*
X94392889Y-172483809D02*
X94513842Y-172604761D01*
X94513842Y-172604761D02*
X94574318Y-172786190D01*
X94574318Y-172786190D02*
X94574318Y-172907142D01*
X94574318Y-171153332D02*
X94574318Y-171879047D01*
X94574318Y-171516190D02*
X93304318Y-171516190D01*
X93304318Y-171516190D02*
X93485746Y-171637142D01*
X93485746Y-171637142D02*
X93606699Y-171758094D01*
X93606699Y-171758094D02*
X93667175Y-171879047D01*
D11*
X81604819Y-145166666D02*
X81128628Y-145499999D01*
X81604819Y-145738094D02*
X80604819Y-145738094D01*
X80604819Y-145738094D02*
X80604819Y-145357142D01*
X80604819Y-145357142D02*
X80652438Y-145261904D01*
X80652438Y-145261904D02*
X80700057Y-145214285D01*
X80700057Y-145214285D02*
X80795295Y-145166666D01*
X80795295Y-145166666D02*
X80938152Y-145166666D01*
X80938152Y-145166666D02*
X81033390Y-145214285D01*
X81033390Y-145214285D02*
X81081009Y-145261904D01*
X81081009Y-145261904D02*
X81128628Y-145357142D01*
X81128628Y-145357142D02*
X81128628Y-145738094D01*
X80604819Y-144833332D02*
X80604819Y-144214285D01*
X80604819Y-144214285D02*
X80985771Y-144547618D01*
X80985771Y-144547618D02*
X80985771Y-144404761D01*
X80985771Y-144404761D02*
X81033390Y-144309523D01*
X81033390Y-144309523D02*
X81081009Y-144261904D01*
X81081009Y-144261904D02*
X81176247Y-144214285D01*
X81176247Y-144214285D02*
X81414342Y-144214285D01*
X81414342Y-144214285D02*
X81509580Y-144261904D01*
X81509580Y-144261904D02*
X81557200Y-144309523D01*
X81557200Y-144309523D02*
X81604819Y-144404761D01*
X81604819Y-144404761D02*
X81604819Y-144690475D01*
X81604819Y-144690475D02*
X81557200Y-144785713D01*
X81557200Y-144785713D02*
X81509580Y-144833332D01*
D13*
%TO.C,C14*%
X72038748Y-162565000D02*
X72561252Y-162565000D01*
X72038748Y-164035000D02*
X72561252Y-164035000D01*
%TO.C,C15*%
X94738748Y-122965000D02*
X95261252Y-122965000D01*
X94738748Y-124435000D02*
X95261252Y-124435000D01*
%TO.C,R7*%
X88022936Y-131515000D02*
X88477064Y-131515000D01*
X88022936Y-132985000D02*
X88477064Y-132985000D01*
%TO.C,R20*%
X80327064Y-151665000D02*
X79872936Y-151665000D01*
X80327064Y-153135000D02*
X79872936Y-153135000D01*
%TO.C,R1*%
X74972936Y-142465000D02*
X75427064Y-142465000D01*
X74972936Y-143935000D02*
X75427064Y-143935000D01*
%TO.C,D7*%
X97540000Y-119000000D02*
X97540000Y-121685000D01*
X97540000Y-121685000D02*
X99460000Y-121685000D01*
X99460000Y-121685000D02*
X99460000Y-119000000D01*
D14*
%TO.C,S1*%
X92950000Y-127950000D02*
X92950000Y-134050000D01*
X92950000Y-134050000D02*
X99050000Y-134050000D01*
X99050000Y-127950000D02*
X92950000Y-127950000D01*
X99050000Y-134050000D02*
X99050000Y-127950000D01*
D15*
X93850000Y-137000000D02*
G75*
G02*
X93650000Y-137000000I-100000J0D01*
G01*
X93650000Y-137000000D02*
G75*
G02*
X93850000Y-137000000I100000J0D01*
G01*
D13*
%TO.C,R14*%
X95227064Y-120265000D02*
X94772936Y-120265000D01*
X95227064Y-121735000D02*
X94772936Y-121735000D01*
%TO.C,U1*%
X80240000Y-138200000D02*
X80240000Y-136250000D01*
X80240000Y-138200000D02*
X80240000Y-140150000D01*
X85360000Y-138200000D02*
X85360000Y-136250000D01*
X85360000Y-138200000D02*
X85360000Y-140150000D01*
X85595000Y-135740000D02*
X85265000Y-135500000D01*
X85595000Y-135260000D01*
X85595000Y-135740000D01*
G36*
X85595000Y-135740000D02*
G01*
X85265000Y-135500000D01*
X85595000Y-135260000D01*
X85595000Y-135740000D01*
G37*
%TO.C,C7*%
X66661252Y-164265000D02*
X66138748Y-164265000D01*
X66661252Y-165735000D02*
X66138748Y-165735000D01*
%TO.C,C2*%
X76265000Y-160238748D02*
X76265000Y-160761252D01*
X77735000Y-160238748D02*
X77735000Y-160761252D01*
%TO.C,D1*%
X84100000Y-143740000D02*
X83450000Y-143740000D01*
X84100000Y-143740000D02*
X84750000Y-143740000D01*
X84100000Y-146860000D02*
X83450000Y-146860000D01*
X84100000Y-146860000D02*
X84750000Y-146860000D01*
X82937500Y-143790000D02*
X82697500Y-143460000D01*
X83177500Y-143460000D01*
X82937500Y-143790000D01*
G36*
X82937500Y-143790000D02*
G01*
X82697500Y-143460000D01*
X83177500Y-143460000D01*
X82937500Y-143790000D01*
G37*
%TO.C,D4*%
X62040000Y-134000000D02*
X62040000Y-136860000D01*
X62040000Y-136860000D02*
X63960000Y-136860000D01*
X63960000Y-136860000D02*
X63960000Y-134000000D01*
%TO.C,R19*%
X94772936Y-117565000D02*
X95227064Y-117565000D01*
X94772936Y-119035000D02*
X95227064Y-119035000D01*
%TO.C,C8*%
X65565000Y-118238748D02*
X65565000Y-118761252D01*
X67035000Y-118238748D02*
X67035000Y-118761252D01*
%TO.C,R22*%
X76172936Y-164465000D02*
X76627064Y-164465000D01*
X76172936Y-165935000D02*
X76627064Y-165935000D01*
%TO.C,C11*%
X66661252Y-148565000D02*
X66138748Y-148565000D01*
X66661252Y-150035000D02*
X66138748Y-150035000D01*
%TO.C,R12*%
X65565000Y-141239564D02*
X65565000Y-140785436D01*
X67035000Y-141239564D02*
X67035000Y-140785436D01*
%TO.C,C13*%
X72038748Y-165965000D02*
X72561252Y-165965000D01*
X72038748Y-167435000D02*
X72561252Y-167435000D01*
%TO.C,D2*%
X62040000Y-140000000D02*
X62040000Y-142685000D01*
X62040000Y-142685000D02*
X63960000Y-142685000D01*
X63960000Y-142685000D02*
X63960000Y-140000000D01*
D15*
%TO.C,D5*%
X69675000Y-169100000D02*
X70225000Y-169100000D01*
X69675000Y-172000000D02*
X69675000Y-169100000D01*
X70225000Y-169100000D02*
X70225000Y-172000000D01*
X70225000Y-172000000D02*
X69675000Y-172000000D01*
X71825000Y-172100000D02*
X70575000Y-172100000D01*
D13*
%TO.C,R8*%
X78477064Y-131515000D02*
X78022936Y-131515000D01*
X78477064Y-132985000D02*
X78022936Y-132985000D01*
%TO.C,R24*%
X79265000Y-166772936D02*
X79265000Y-167227064D01*
X80735000Y-166772936D02*
X80735000Y-167227064D01*
%TO.C,R18*%
X64227064Y-126965000D02*
X63772936Y-126965000D01*
X64227064Y-128435000D02*
X63772936Y-128435000D01*
%TO.C,D9*%
X84400000Y-166840000D02*
X83750000Y-166840000D01*
X84400000Y-166840000D02*
X85050000Y-166840000D01*
X84400000Y-169960000D02*
X83750000Y-169960000D01*
X84400000Y-169960000D02*
X85050000Y-169960000D01*
X83237500Y-166890000D02*
X82997500Y-166560000D01*
X83477500Y-166560000D01*
X83237500Y-166890000D01*
G36*
X83237500Y-166890000D02*
G01*
X82997500Y-166560000D01*
X83477500Y-166560000D01*
X83237500Y-166890000D01*
G37*
%TO.C,D3*%
X64500000Y-167540000D02*
X64500000Y-171550000D01*
X66500000Y-167540000D02*
X64500000Y-167540000D01*
X66500000Y-167540000D02*
X66500000Y-171550000D01*
%TO.C,R9*%
X88022936Y-135015000D02*
X88477064Y-135015000D01*
X88022936Y-136485000D02*
X88477064Y-136485000D01*
%TO.C,C12*%
X66661252Y-151565000D02*
X66138748Y-151565000D01*
X66661252Y-153035000D02*
X66138748Y-153035000D01*
%TO.C,R10*%
X83772936Y-151665000D02*
X84227064Y-151665000D01*
X83772936Y-153135000D02*
X84227064Y-153135000D01*
%TO.C,D6*%
X62040000Y-130000000D02*
X62040000Y-132685000D01*
X62040000Y-132685000D02*
X63960000Y-132685000D01*
X63960000Y-132685000D02*
X63960000Y-130000000D01*
%TO.C,C1*%
X77515000Y-139738748D02*
X77515000Y-140261252D01*
X78985000Y-139738748D02*
X78985000Y-140261252D01*
%TO.C,R21*%
X79872936Y-148765000D02*
X80327064Y-148765000D01*
X79872936Y-150235000D02*
X80327064Y-150235000D01*
%TO.C,C10*%
X64261252Y-124265000D02*
X63738748Y-124265000D01*
X64261252Y-125735000D02*
X63738748Y-125735000D01*
D16*
%TO.C,J3*%
X88000000Y-140000000D02*
X99000000Y-140000000D01*
X88000000Y-152000000D02*
X88000000Y-140000000D01*
X99000000Y-152000000D02*
X88000000Y-152000000D01*
D13*
%TO.C,D8*%
X62040000Y-144000000D02*
X62040000Y-146860000D01*
X62040000Y-146860000D02*
X63960000Y-146860000D01*
X63960000Y-146860000D02*
X63960000Y-144000000D01*
%TO.C,U2*%
X79040000Y-159000000D02*
X79040000Y-157050000D01*
X79040000Y-159000000D02*
X79040000Y-160950000D01*
X84160000Y-159000000D02*
X84160000Y-157050000D01*
X84160000Y-159000000D02*
X84160000Y-160950000D01*
X84395000Y-156540000D02*
X84065000Y-156300000D01*
X84395000Y-156060000D01*
X84395000Y-156540000D01*
G36*
X84395000Y-156540000D02*
G01*
X84065000Y-156300000D01*
X84395000Y-156060000D01*
X84395000Y-156540000D01*
G37*
%TO.C,U5*%
X67090000Y-154590000D02*
X67090000Y-155850000D01*
X67090000Y-161410000D02*
X67090000Y-160150000D01*
X70850000Y-154590000D02*
X67090000Y-154590000D01*
X70850000Y-161410000D02*
X67090000Y-161410000D01*
X72370000Y-161640000D02*
X71890000Y-161640000D01*
X72130000Y-161310000D01*
X72370000Y-161640000D01*
G36*
X72370000Y-161640000D02*
G01*
X71890000Y-161640000D01*
X72130000Y-161310000D01*
X72370000Y-161640000D01*
G37*
%TO.C,R13*%
X65565000Y-145227064D02*
X65565000Y-144772936D01*
X67035000Y-145227064D02*
X67035000Y-144772936D01*
%TO.C,R6*%
X82977064Y-131515000D02*
X82522936Y-131515000D01*
X82977064Y-132985000D02*
X82522936Y-132985000D01*
%TO.C,R2*%
X75427064Y-145765000D02*
X74972936Y-145765000D01*
X75427064Y-147235000D02*
X74972936Y-147235000D01*
%TO.C,R11*%
X83772936Y-148765000D02*
X84227064Y-148765000D01*
X83772936Y-150235000D02*
X84227064Y-150235000D01*
%TO.C,R23*%
X76627064Y-167065000D02*
X76172936Y-167065000D01*
X76627064Y-168535000D02*
X76172936Y-168535000D01*
D15*
%TO.C,J5*%
X75530000Y-175860000D02*
X75530000Y-177070000D01*
X84470000Y-175860000D02*
X84470000Y-177070000D01*
X76320000Y-172770000D02*
G75*
G02*
X76120000Y-172770000I-100000J0D01*
G01*
X76120000Y-172770000D02*
G75*
G02*
X76320000Y-172770000I100000J0D01*
G01*
D13*
%TO.C,R16*%
X70065000Y-177227064D02*
X70065000Y-176772936D01*
X71535000Y-177227064D02*
X71535000Y-176772936D01*
%TO.C,R5*%
X65565000Y-132927064D02*
X65565000Y-132472936D01*
X67035000Y-132927064D02*
X67035000Y-132472936D01*
%TO.C,U4*%
X71000000Y-110900000D02*
X71000000Y-111000000D01*
X71000000Y-129000000D02*
X71000000Y-129750000D01*
X71000000Y-129750000D02*
X72000000Y-129750000D01*
X89000000Y-110800000D02*
X89000000Y-111000000D01*
X89000000Y-129000000D02*
X89000000Y-129750000D01*
X89000000Y-129750000D02*
X88000000Y-129750000D01*
%TO.C,R15*%
X88065000Y-177227064D02*
X88065000Y-176772936D01*
X89535000Y-177227064D02*
X89535000Y-176772936D01*
%TO.C,C9*%
X67165000Y-113738748D02*
X67165000Y-114261252D01*
X68635000Y-113738748D02*
X68635000Y-114261252D01*
%TO.C,R4*%
X65565000Y-136572936D02*
X65565000Y-137027064D01*
X67035000Y-136572936D02*
X67035000Y-137027064D01*
%TO.C,R17*%
X64227064Y-121665000D02*
X63772936Y-121665000D01*
X64227064Y-123135000D02*
X63772936Y-123135000D01*
D16*
%TO.C,J1*%
X88000000Y-158000000D02*
X99000000Y-158000000D01*
X88000000Y-170000000D02*
X88000000Y-158000000D01*
X99000000Y-170000000D02*
X88000000Y-170000000D01*
D13*
%TO.C,R3*%
X78765000Y-144772936D02*
X78765000Y-145227064D01*
X80235000Y-144772936D02*
X80235000Y-145227064D01*
%TD*%
%LPC*%
D17*
%TO.C,C14*%
X71350000Y-163300000D03*
X73250000Y-163300000D03*
%TD*%
%TO.C,C15*%
X94050000Y-123700000D03*
X95950000Y-123700000D03*
%TD*%
D18*
%TO.C,R7*%
X87337500Y-132250000D03*
X89162500Y-132250000D03*
%TD*%
D19*
%TO.C,R20*%
X81012500Y-152400000D03*
X79187500Y-152400000D03*
%TD*%
D18*
%TO.C,R1*%
X74287500Y-143200000D03*
X76112500Y-143200000D03*
%TD*%
D20*
%TO.C,D7*%
X98500000Y-120937500D03*
X98500000Y-119062500D03*
%TD*%
D21*
%TO.C,S1*%
X93750000Y-135200000D03*
X98250000Y-135200000D03*
X93750000Y-126800000D03*
X98250000Y-126800000D03*
%TD*%
D22*
%TO.C,REF\u002A\u002A*%
X63000000Y-113500000D03*
%TD*%
D19*
%TO.C,R14*%
X95912500Y-121000000D03*
X94087500Y-121000000D03*
%TD*%
D23*
%TO.C,U1*%
X84705000Y-135725000D03*
X83435000Y-135725000D03*
X82165000Y-135725000D03*
X80895000Y-135725000D03*
X80895000Y-140675000D03*
X82165000Y-140675000D03*
X83435000Y-140675000D03*
X84705000Y-140675000D03*
%TD*%
D24*
%TO.C,C7*%
X67350000Y-165000000D03*
X65450000Y-165000000D03*
%TD*%
D25*
%TO.C,C2*%
X77000000Y-159550000D03*
X77000000Y-161450000D03*
%TD*%
D22*
%TO.C,REF\u002A\u002A*%
X63000000Y-177000000D03*
%TD*%
D26*
%TO.C,D1*%
X83162500Y-144350000D03*
X83162500Y-146250000D03*
X85037500Y-145300000D03*
%TD*%
D27*
%TO.C,D4*%
X63000000Y-136025000D03*
X63000000Y-133975000D03*
%TD*%
D18*
%TO.C,R19*%
X94087500Y-118300000D03*
X95912500Y-118300000D03*
%TD*%
D25*
%TO.C,C8*%
X66300000Y-117550000D03*
X66300000Y-119450000D03*
%TD*%
D18*
%TO.C,R22*%
X75487500Y-165200000D03*
X77312500Y-165200000D03*
%TD*%
D24*
%TO.C,C11*%
X67350000Y-149300000D03*
X65450000Y-149300000D03*
%TD*%
D28*
%TO.C,R12*%
X66300000Y-141925000D03*
X66300000Y-140100000D03*
%TD*%
D17*
%TO.C,C13*%
X71350000Y-166700000D03*
X73250000Y-166700000D03*
%TD*%
D20*
%TO.C,D2*%
X63000000Y-141937500D03*
X63000000Y-140062500D03*
%TD*%
D29*
%TO.C,D5*%
X71200000Y-171500000D03*
X71200000Y-170550000D03*
X71200000Y-169600000D03*
X68700000Y-169600000D03*
X68700000Y-170550000D03*
X68700000Y-171500000D03*
%TD*%
D19*
%TO.C,R8*%
X79162500Y-132250000D03*
X77337500Y-132250000D03*
%TD*%
D30*
%TO.C,R24*%
X80000000Y-166087500D03*
X80000000Y-167912500D03*
%TD*%
D19*
%TO.C,R18*%
X64912500Y-127700000D03*
X63087500Y-127700000D03*
%TD*%
D26*
%TO.C,D9*%
X83462500Y-167450000D03*
X83462500Y-169350000D03*
X85337500Y-168400000D03*
%TD*%
D31*
%TO.C,D3*%
X65500000Y-168250000D03*
X65500000Y-171550000D03*
%TD*%
D18*
%TO.C,R9*%
X87337500Y-135750000D03*
X89162500Y-135750000D03*
%TD*%
D24*
%TO.C,C12*%
X67350000Y-152300000D03*
X65450000Y-152300000D03*
%TD*%
D18*
%TO.C,R10*%
X83087500Y-152400000D03*
X84912500Y-152400000D03*
%TD*%
D20*
%TO.C,D6*%
X63000000Y-131937500D03*
X63000000Y-130062500D03*
%TD*%
D22*
%TO.C,REF\u002A\u002A*%
X97000000Y-177000000D03*
%TD*%
D25*
%TO.C,C1*%
X78250000Y-139050000D03*
X78250000Y-140950000D03*
%TD*%
D18*
%TO.C,R21*%
X79187500Y-149500000D03*
X81012500Y-149500000D03*
%TD*%
D22*
%TO.C,REF\u002A\u002A*%
X97000000Y-113500000D03*
%TD*%
D24*
%TO.C,C10*%
X64950000Y-125000000D03*
X63050000Y-125000000D03*
%TD*%
D32*
%TO.C,J3*%
X95300000Y-148750000D03*
X90300000Y-145250000D03*
X95300000Y-141750000D03*
%TD*%
D27*
%TO.C,D8*%
X63000000Y-146025000D03*
X63000000Y-143975000D03*
%TD*%
D23*
%TO.C,U2*%
X83505000Y-156525000D03*
X82235000Y-156525000D03*
X80965000Y-156525000D03*
X79695000Y-156525000D03*
X79695000Y-161475000D03*
X80965000Y-161475000D03*
X82235000Y-161475000D03*
X83505000Y-161475000D03*
%TD*%
D33*
%TO.C,U5*%
X72150000Y-160300000D03*
X72150000Y-158000000D03*
D34*
X65850000Y-158000000D03*
D33*
X72150000Y-155700000D03*
%TD*%
D28*
%TO.C,R13*%
X66300000Y-145912500D03*
X66300000Y-144087500D03*
%TD*%
D19*
%TO.C,R6*%
X83662500Y-132250000D03*
X81837500Y-132250000D03*
%TD*%
%TO.C,R2*%
X76112500Y-146500000D03*
X74287500Y-146500000D03*
%TD*%
D18*
%TO.C,R11*%
X83087500Y-149500000D03*
X84912500Y-149500000D03*
%TD*%
D19*
%TO.C,R23*%
X77312500Y-167800000D03*
X75487500Y-167800000D03*
%TD*%
D35*
%TO.C,J5*%
X77110000Y-175000000D03*
X82890000Y-175000000D03*
D36*
X76800000Y-173925000D03*
X77600000Y-173925000D03*
D37*
X78750000Y-173925000D03*
X79750000Y-173925000D03*
X80250000Y-173925000D03*
X81250000Y-173925000D03*
D36*
X83200000Y-173925000D03*
X82400000Y-173925000D03*
D37*
X81750000Y-173925000D03*
X80750000Y-173925000D03*
X79250000Y-173925000D03*
X78250000Y-173925000D03*
D38*
X74890000Y-174500000D03*
X85110000Y-174500000D03*
X74890000Y-178430000D03*
X85110000Y-178430000D03*
%TD*%
D28*
%TO.C,R16*%
X70800000Y-177912500D03*
X70800000Y-176087500D03*
%TD*%
%TO.C,R5*%
X66300000Y-133612500D03*
X66300000Y-131787500D03*
%TD*%
D39*
%TO.C,U4*%
X71250000Y-111740000D03*
X71250000Y-113010000D03*
X71250000Y-114280000D03*
X71250000Y-115550000D03*
X71250000Y-116820000D03*
X71250000Y-118090000D03*
X71250000Y-119360000D03*
X71250000Y-120630000D03*
X71250000Y-121900000D03*
X71250000Y-123170000D03*
X71250000Y-124440000D03*
X71250000Y-125710000D03*
X71250000Y-126980000D03*
X71250000Y-128250000D03*
X88750000Y-128250000D03*
X88750000Y-126980000D03*
X88750000Y-125710000D03*
X88750000Y-124440000D03*
X88750000Y-123170000D03*
X88750000Y-121900000D03*
X88750000Y-120630000D03*
X88750000Y-119360000D03*
X88750000Y-118090000D03*
X88750000Y-116820000D03*
X88750000Y-115550000D03*
X88750000Y-114280000D03*
X88750000Y-113010000D03*
X88750000Y-111740000D03*
D40*
X77245000Y-116210000D03*
X77245000Y-117460000D03*
X77245000Y-118710000D03*
X78495000Y-116210000D03*
X78495000Y-117460000D03*
X78495000Y-118710000D03*
X79745000Y-116210000D03*
X79745000Y-117460000D03*
X79745000Y-118710000D03*
%TD*%
D28*
%TO.C,R15*%
X88800000Y-177912500D03*
X88800000Y-176087500D03*
%TD*%
D25*
%TO.C,C9*%
X67900000Y-113050000D03*
X67900000Y-114950000D03*
%TD*%
D30*
%TO.C,R4*%
X66300000Y-135887500D03*
X66300000Y-137712500D03*
%TD*%
D19*
%TO.C,R17*%
X64912500Y-122400000D03*
X63087500Y-122400000D03*
%TD*%
D32*
%TO.C,J1*%
X95300000Y-166750000D03*
X90300000Y-163250000D03*
X95300000Y-159750000D03*
%TD*%
D30*
%TO.C,R3*%
X79500000Y-144087500D03*
X79500000Y-145912500D03*
%TD*%
%LPD*%
M02*
