M48
; DRILL file {KiCad 9.0.4} date 2025-10-04T23:29:17+0200
; FORMAT={-:-/ absolute / metric / decimal}
; #@! TF.CreationDate,2025-10-04T23:29:17+02:00
; #@! TF.GenerationSoftware,Kicad,Pcbnew,9.0.4
; #@! TF.FileFunction,Plated,1,2,PTH
FMAT,2
METRIC
; #@! TA.AperFunction,Plated,PTH,ViaDrill
T1C0.300
; #@! TA.AperFunction,Plated,PTH,ComponentDrill
T2C1.000
%
G90
G05
T1
X61.0Y-140.75
X62.0Y-126.25
X63.75Y-120.0
X64.1Y-137.7
X65.75Y-112.0
X66.3Y-130.0
X68.4Y-143.0
X68.45Y-146.05
X70.6Y-145.3
X70.9Y-131.7
X70.9Y-133.1
X71.5Y-140.75
X71.65Y-151.45
X72.0Y-135.25
X72.8Y-172.5
X72.9Y-169.6
X72.9Y-171.5
X75.0Y-132.5
X77.0Y-144.75
X77.75Y-146.25
X78.25Y-163.25
X79.5Y-142.5
X80.75Y-169.25
X82.0Y-151.0
X82.2Y-164.1
X82.4Y-172.5
X83.435Y-142.685
X84.0Y-151.0
X84.25Y-139.05
X86.75Y-118.0
X92.0Y-122.0
T2
X90.3Y-145.25
X90.3Y-163.25
X95.3Y-141.75
X95.3Y-148.75
X95.3Y-159.75
X95.3Y-166.75
M30
