%TF.GenerationSoftware,KiCad,Pcbnew,9.0.4*%
%TF.CreationDate,2025-10-04T23:29:17+02:00*%
%TF.ProjectId,zVMC_PCB,7a564d43-5f50-4434-922e-6b696361645f,rev?*%
%TF.SameCoordinates,Original*%
%TF.FileFunction,Drillmap*%
%TF.FilePolarity,Positive*%
%FSLAX45Y45*%
G04 Gerber Fmt 4.5, Leading zero omitted, Abs format (unit mm)*
G04 Created by KiCad (PCBNEW 9.0.4) date 2025-10-04 23:29:17*
%MOMM*%
%LPD*%
G01*
G04 APERTURE LIST*
%ADD10C,0.050000*%
%ADD11C,0.200000*%
%ADD12C,0.100000*%
%ADD13C,0.250000*%
G04 APERTURE END LIST*
D10*
X6000000Y-11050000D02*
X10000000Y-11050000D01*
X10000000Y-18000000D01*
X6000000Y-18000000D01*
X6000000Y-11050000D01*
D11*
D12*
X7678500Y-17467500D02*
X7743500Y-17532500D01*
X7743500Y-17467500D02*
X7678500Y-17532500D01*
X8256500Y-17467500D02*
X8321500Y-17532500D01*
X8321500Y-17467500D02*
X8256500Y-17532500D01*
D13*
X6425000Y-11350000D02*
G75*
G02*
X6175000Y-11350000I-125000J0D01*
G01*
X6175000Y-11350000D02*
G75*
G02*
X6425000Y-11350000I125000J0D01*
G01*
X6425000Y-17700000D02*
G75*
G02*
X6175000Y-17700000I-125000J0D01*
G01*
X6175000Y-17700000D02*
G75*
G02*
X6425000Y-17700000I125000J0D01*
G01*
X9825000Y-11350000D02*
G75*
G02*
X9575000Y-11350000I-125000J0D01*
G01*
X9575000Y-11350000D02*
G75*
G02*
X9825000Y-11350000I125000J0D01*
G01*
X9825000Y-17700000D02*
G75*
G02*
X9575000Y-17700000I-125000J0D01*
G01*
X9575000Y-17700000D02*
G75*
G02*
X9825000Y-17700000I125000J0D01*
G01*
D11*
X6258277Y-18313984D02*
X6258277Y-18113984D01*
X6258277Y-18113984D02*
X6305896Y-18113984D01*
X6305896Y-18113984D02*
X6334467Y-18123508D01*
X6334467Y-18123508D02*
X6353515Y-18142555D01*
X6353515Y-18142555D02*
X6363039Y-18161603D01*
X6363039Y-18161603D02*
X6372562Y-18199698D01*
X6372562Y-18199698D02*
X6372562Y-18228270D01*
X6372562Y-18228270D02*
X6363039Y-18266365D01*
X6363039Y-18266365D02*
X6353515Y-18285412D01*
X6353515Y-18285412D02*
X6334467Y-18304460D01*
X6334467Y-18304460D02*
X6305896Y-18313984D01*
X6305896Y-18313984D02*
X6258277Y-18313984D01*
X6458277Y-18313984D02*
X6458277Y-18180650D01*
X6458277Y-18218746D02*
X6467801Y-18199698D01*
X6467801Y-18199698D02*
X6477324Y-18190174D01*
X6477324Y-18190174D02*
X6496372Y-18180650D01*
X6496372Y-18180650D02*
X6515420Y-18180650D01*
X6582086Y-18313984D02*
X6582086Y-18180650D01*
X6582086Y-18113984D02*
X6572562Y-18123508D01*
X6572562Y-18123508D02*
X6582086Y-18133031D01*
X6582086Y-18133031D02*
X6591610Y-18123508D01*
X6591610Y-18123508D02*
X6582086Y-18113984D01*
X6582086Y-18113984D02*
X6582086Y-18133031D01*
X6705896Y-18313984D02*
X6686848Y-18304460D01*
X6686848Y-18304460D02*
X6677324Y-18285412D01*
X6677324Y-18285412D02*
X6677324Y-18113984D01*
X6810658Y-18313984D02*
X6791610Y-18304460D01*
X6791610Y-18304460D02*
X6782086Y-18285412D01*
X6782086Y-18285412D02*
X6782086Y-18113984D01*
X7039229Y-18313984D02*
X7039229Y-18113984D01*
X7039229Y-18113984D02*
X7105896Y-18256841D01*
X7105896Y-18256841D02*
X7172562Y-18113984D01*
X7172562Y-18113984D02*
X7172562Y-18313984D01*
X7353515Y-18313984D02*
X7353515Y-18209222D01*
X7353515Y-18209222D02*
X7343991Y-18190174D01*
X7343991Y-18190174D02*
X7324943Y-18180650D01*
X7324943Y-18180650D02*
X7286848Y-18180650D01*
X7286848Y-18180650D02*
X7267801Y-18190174D01*
X7353515Y-18304460D02*
X7334467Y-18313984D01*
X7334467Y-18313984D02*
X7286848Y-18313984D01*
X7286848Y-18313984D02*
X7267801Y-18304460D01*
X7267801Y-18304460D02*
X7258277Y-18285412D01*
X7258277Y-18285412D02*
X7258277Y-18266365D01*
X7258277Y-18266365D02*
X7267801Y-18247317D01*
X7267801Y-18247317D02*
X7286848Y-18237793D01*
X7286848Y-18237793D02*
X7334467Y-18237793D01*
X7334467Y-18237793D02*
X7353515Y-18228270D01*
X7448753Y-18180650D02*
X7448753Y-18380650D01*
X7448753Y-18190174D02*
X7467801Y-18180650D01*
X7467801Y-18180650D02*
X7505896Y-18180650D01*
X7505896Y-18180650D02*
X7524943Y-18190174D01*
X7524943Y-18190174D02*
X7534467Y-18199698D01*
X7534467Y-18199698D02*
X7543991Y-18218746D01*
X7543991Y-18218746D02*
X7543991Y-18275889D01*
X7543991Y-18275889D02*
X7534467Y-18294936D01*
X7534467Y-18294936D02*
X7524943Y-18304460D01*
X7524943Y-18304460D02*
X7505896Y-18313984D01*
X7505896Y-18313984D02*
X7467801Y-18313984D01*
X7467801Y-18313984D02*
X7448753Y-18304460D01*
X7629705Y-18294936D02*
X7639229Y-18304460D01*
X7639229Y-18304460D02*
X7629705Y-18313984D01*
X7629705Y-18313984D02*
X7620182Y-18304460D01*
X7620182Y-18304460D02*
X7629705Y-18294936D01*
X7629705Y-18294936D02*
X7629705Y-18313984D01*
X7629705Y-18190174D02*
X7639229Y-18199698D01*
X7639229Y-18199698D02*
X7629705Y-18209222D01*
X7629705Y-18209222D02*
X7620182Y-18199698D01*
X7620182Y-18199698D02*
X7629705Y-18190174D01*
X7629705Y-18190174D02*
X7629705Y-18209222D01*
D12*
X5932500Y-18610000D02*
X5997500Y-18675000D01*
X5997500Y-18610000D02*
X5932500Y-18675000D01*
D11*
X6296372Y-18533984D02*
X6315420Y-18533984D01*
X6315420Y-18533984D02*
X6334467Y-18543508D01*
X6334467Y-18543508D02*
X6343991Y-18553031D01*
X6343991Y-18553031D02*
X6353515Y-18572079D01*
X6353515Y-18572079D02*
X6363039Y-18610174D01*
X6363039Y-18610174D02*
X6363039Y-18657793D01*
X6363039Y-18657793D02*
X6353515Y-18695889D01*
X6353515Y-18695889D02*
X6343991Y-18714936D01*
X6343991Y-18714936D02*
X6334467Y-18724460D01*
X6334467Y-18724460D02*
X6315420Y-18733984D01*
X6315420Y-18733984D02*
X6296372Y-18733984D01*
X6296372Y-18733984D02*
X6277324Y-18724460D01*
X6277324Y-18724460D02*
X6267801Y-18714936D01*
X6267801Y-18714936D02*
X6258277Y-18695889D01*
X6258277Y-18695889D02*
X6248753Y-18657793D01*
X6248753Y-18657793D02*
X6248753Y-18610174D01*
X6248753Y-18610174D02*
X6258277Y-18572079D01*
X6258277Y-18572079D02*
X6267801Y-18553031D01*
X6267801Y-18553031D02*
X6277324Y-18543508D01*
X6277324Y-18543508D02*
X6296372Y-18533984D01*
X6448753Y-18714936D02*
X6458277Y-18724460D01*
X6458277Y-18724460D02*
X6448753Y-18733984D01*
X6448753Y-18733984D02*
X6439229Y-18724460D01*
X6439229Y-18724460D02*
X6448753Y-18714936D01*
X6448753Y-18714936D02*
X6448753Y-18733984D01*
X6629705Y-18533984D02*
X6591610Y-18533984D01*
X6591610Y-18533984D02*
X6572562Y-18543508D01*
X6572562Y-18543508D02*
X6563039Y-18553031D01*
X6563039Y-18553031D02*
X6543991Y-18581603D01*
X6543991Y-18581603D02*
X6534467Y-18619698D01*
X6534467Y-18619698D02*
X6534467Y-18695889D01*
X6534467Y-18695889D02*
X6543991Y-18714936D01*
X6543991Y-18714936D02*
X6553515Y-18724460D01*
X6553515Y-18724460D02*
X6572562Y-18733984D01*
X6572562Y-18733984D02*
X6610658Y-18733984D01*
X6610658Y-18733984D02*
X6629705Y-18724460D01*
X6629705Y-18724460D02*
X6639229Y-18714936D01*
X6639229Y-18714936D02*
X6648753Y-18695889D01*
X6648753Y-18695889D02*
X6648753Y-18648270D01*
X6648753Y-18648270D02*
X6639229Y-18629222D01*
X6639229Y-18629222D02*
X6629705Y-18619698D01*
X6629705Y-18619698D02*
X6610658Y-18610174D01*
X6610658Y-18610174D02*
X6572562Y-18610174D01*
X6572562Y-18610174D02*
X6553515Y-18619698D01*
X6553515Y-18619698D02*
X6543991Y-18629222D01*
X6543991Y-18629222D02*
X6534467Y-18648270D01*
X6829705Y-18533984D02*
X6734467Y-18533984D01*
X6734467Y-18533984D02*
X6724943Y-18629222D01*
X6724943Y-18629222D02*
X6734467Y-18619698D01*
X6734467Y-18619698D02*
X6753515Y-18610174D01*
X6753515Y-18610174D02*
X6801134Y-18610174D01*
X6801134Y-18610174D02*
X6820182Y-18619698D01*
X6820182Y-18619698D02*
X6829705Y-18629222D01*
X6829705Y-18629222D02*
X6839229Y-18648270D01*
X6839229Y-18648270D02*
X6839229Y-18695889D01*
X6839229Y-18695889D02*
X6829705Y-18714936D01*
X6829705Y-18714936D02*
X6820182Y-18724460D01*
X6820182Y-18724460D02*
X6801134Y-18733984D01*
X6801134Y-18733984D02*
X6753515Y-18733984D01*
X6753515Y-18733984D02*
X6734467Y-18724460D01*
X6734467Y-18724460D02*
X6724943Y-18714936D01*
X6963039Y-18533984D02*
X6982086Y-18533984D01*
X6982086Y-18533984D02*
X7001134Y-18543508D01*
X7001134Y-18543508D02*
X7010658Y-18553031D01*
X7010658Y-18553031D02*
X7020182Y-18572079D01*
X7020182Y-18572079D02*
X7029705Y-18610174D01*
X7029705Y-18610174D02*
X7029705Y-18657793D01*
X7029705Y-18657793D02*
X7020182Y-18695889D01*
X7020182Y-18695889D02*
X7010658Y-18714936D01*
X7010658Y-18714936D02*
X7001134Y-18724460D01*
X7001134Y-18724460D02*
X6982086Y-18733984D01*
X6982086Y-18733984D02*
X6963039Y-18733984D01*
X6963039Y-18733984D02*
X6943991Y-18724460D01*
X6943991Y-18724460D02*
X6934467Y-18714936D01*
X6934467Y-18714936D02*
X6924943Y-18695889D01*
X6924943Y-18695889D02*
X6915420Y-18657793D01*
X6915420Y-18657793D02*
X6915420Y-18610174D01*
X6915420Y-18610174D02*
X6924943Y-18572079D01*
X6924943Y-18572079D02*
X6934467Y-18553031D01*
X6934467Y-18553031D02*
X6943991Y-18543508D01*
X6943991Y-18543508D02*
X6963039Y-18533984D01*
X7115420Y-18733984D02*
X7115420Y-18600650D01*
X7115420Y-18619698D02*
X7124943Y-18610174D01*
X7124943Y-18610174D02*
X7143991Y-18600650D01*
X7143991Y-18600650D02*
X7172563Y-18600650D01*
X7172563Y-18600650D02*
X7191610Y-18610174D01*
X7191610Y-18610174D02*
X7201134Y-18629222D01*
X7201134Y-18629222D02*
X7201134Y-18733984D01*
X7201134Y-18629222D02*
X7210658Y-18610174D01*
X7210658Y-18610174D02*
X7229705Y-18600650D01*
X7229705Y-18600650D02*
X7258277Y-18600650D01*
X7258277Y-18600650D02*
X7277324Y-18610174D01*
X7277324Y-18610174D02*
X7286848Y-18629222D01*
X7286848Y-18629222D02*
X7286848Y-18733984D01*
X7382086Y-18733984D02*
X7382086Y-18600650D01*
X7382086Y-18619698D02*
X7391610Y-18610174D01*
X7391610Y-18610174D02*
X7410658Y-18600650D01*
X7410658Y-18600650D02*
X7439229Y-18600650D01*
X7439229Y-18600650D02*
X7458277Y-18610174D01*
X7458277Y-18610174D02*
X7467801Y-18629222D01*
X7467801Y-18629222D02*
X7467801Y-18733984D01*
X7467801Y-18629222D02*
X7477324Y-18610174D01*
X7477324Y-18610174D02*
X7496372Y-18600650D01*
X7496372Y-18600650D02*
X7524943Y-18600650D01*
X7524943Y-18600650D02*
X7543991Y-18610174D01*
X7543991Y-18610174D02*
X7553515Y-18629222D01*
X7553515Y-18629222D02*
X7553515Y-18733984D01*
X7943991Y-18524460D02*
X7772563Y-18781603D01*
X8201134Y-18533984D02*
X8220182Y-18533984D01*
X8220182Y-18533984D02*
X8239229Y-18543508D01*
X8239229Y-18543508D02*
X8248753Y-18553031D01*
X8248753Y-18553031D02*
X8258277Y-18572079D01*
X8258277Y-18572079D02*
X8267801Y-18610174D01*
X8267801Y-18610174D02*
X8267801Y-18657793D01*
X8267801Y-18657793D02*
X8258277Y-18695889D01*
X8258277Y-18695889D02*
X8248753Y-18714936D01*
X8248753Y-18714936D02*
X8239229Y-18724460D01*
X8239229Y-18724460D02*
X8220182Y-18733984D01*
X8220182Y-18733984D02*
X8201134Y-18733984D01*
X8201134Y-18733984D02*
X8182086Y-18724460D01*
X8182086Y-18724460D02*
X8172563Y-18714936D01*
X8172563Y-18714936D02*
X8163039Y-18695889D01*
X8163039Y-18695889D02*
X8153515Y-18657793D01*
X8153515Y-18657793D02*
X8153515Y-18610174D01*
X8153515Y-18610174D02*
X8163039Y-18572079D01*
X8163039Y-18572079D02*
X8172563Y-18553031D01*
X8172563Y-18553031D02*
X8182086Y-18543508D01*
X8182086Y-18543508D02*
X8201134Y-18533984D01*
X8353515Y-18714936D02*
X8363039Y-18724460D01*
X8363039Y-18724460D02*
X8353515Y-18733984D01*
X8353515Y-18733984D02*
X8343991Y-18724460D01*
X8343991Y-18724460D02*
X8353515Y-18714936D01*
X8353515Y-18714936D02*
X8353515Y-18733984D01*
X8486848Y-18533984D02*
X8505896Y-18533984D01*
X8505896Y-18533984D02*
X8524944Y-18543508D01*
X8524944Y-18543508D02*
X8534468Y-18553031D01*
X8534468Y-18553031D02*
X8543991Y-18572079D01*
X8543991Y-18572079D02*
X8553515Y-18610174D01*
X8553515Y-18610174D02*
X8553515Y-18657793D01*
X8553515Y-18657793D02*
X8543991Y-18695889D01*
X8543991Y-18695889D02*
X8534468Y-18714936D01*
X8534468Y-18714936D02*
X8524944Y-18724460D01*
X8524944Y-18724460D02*
X8505896Y-18733984D01*
X8505896Y-18733984D02*
X8486848Y-18733984D01*
X8486848Y-18733984D02*
X8467801Y-18724460D01*
X8467801Y-18724460D02*
X8458277Y-18714936D01*
X8458277Y-18714936D02*
X8448753Y-18695889D01*
X8448753Y-18695889D02*
X8439229Y-18657793D01*
X8439229Y-18657793D02*
X8439229Y-18610174D01*
X8439229Y-18610174D02*
X8448753Y-18572079D01*
X8448753Y-18572079D02*
X8458277Y-18553031D01*
X8458277Y-18553031D02*
X8467801Y-18543508D01*
X8467801Y-18543508D02*
X8486848Y-18533984D01*
X8629706Y-18553031D02*
X8639229Y-18543508D01*
X8639229Y-18543508D02*
X8658277Y-18533984D01*
X8658277Y-18533984D02*
X8705896Y-18533984D01*
X8705896Y-18533984D02*
X8724944Y-18543508D01*
X8724944Y-18543508D02*
X8734468Y-18553031D01*
X8734468Y-18553031D02*
X8743991Y-18572079D01*
X8743991Y-18572079D02*
X8743991Y-18591127D01*
X8743991Y-18591127D02*
X8734468Y-18619698D01*
X8734468Y-18619698D02*
X8620182Y-18733984D01*
X8620182Y-18733984D02*
X8743991Y-18733984D01*
X8924944Y-18533984D02*
X8829706Y-18533984D01*
X8829706Y-18533984D02*
X8820182Y-18629222D01*
X8820182Y-18629222D02*
X8829706Y-18619698D01*
X8829706Y-18619698D02*
X8848753Y-18610174D01*
X8848753Y-18610174D02*
X8896372Y-18610174D01*
X8896372Y-18610174D02*
X8915420Y-18619698D01*
X8915420Y-18619698D02*
X8924944Y-18629222D01*
X8924944Y-18629222D02*
X8934468Y-18648270D01*
X8934468Y-18648270D02*
X8934468Y-18695889D01*
X8934468Y-18695889D02*
X8924944Y-18714936D01*
X8924944Y-18714936D02*
X8915420Y-18724460D01*
X8915420Y-18724460D02*
X8896372Y-18733984D01*
X8896372Y-18733984D02*
X8848753Y-18733984D01*
X8848753Y-18733984D02*
X8829706Y-18724460D01*
X8829706Y-18724460D02*
X8820182Y-18714936D01*
X9105896Y-18533984D02*
X9067801Y-18533984D01*
X9067801Y-18533984D02*
X9048753Y-18543508D01*
X9048753Y-18543508D02*
X9039229Y-18553031D01*
X9039229Y-18553031D02*
X9020182Y-18581603D01*
X9020182Y-18581603D02*
X9010658Y-18619698D01*
X9010658Y-18619698D02*
X9010658Y-18695889D01*
X9010658Y-18695889D02*
X9020182Y-18714936D01*
X9020182Y-18714936D02*
X9029706Y-18724460D01*
X9029706Y-18724460D02*
X9048753Y-18733984D01*
X9048753Y-18733984D02*
X9086849Y-18733984D01*
X9086849Y-18733984D02*
X9105896Y-18724460D01*
X9105896Y-18724460D02*
X9115420Y-18714936D01*
X9115420Y-18714936D02*
X9124944Y-18695889D01*
X9124944Y-18695889D02*
X9124944Y-18648270D01*
X9124944Y-18648270D02*
X9115420Y-18629222D01*
X9115420Y-18629222D02*
X9105896Y-18619698D01*
X9105896Y-18619698D02*
X9086849Y-18610174D01*
X9086849Y-18610174D02*
X9048753Y-18610174D01*
X9048753Y-18610174D02*
X9029706Y-18619698D01*
X9029706Y-18619698D02*
X9020182Y-18629222D01*
X9020182Y-18629222D02*
X9010658Y-18648270D01*
X9201134Y-18533984D02*
X9201134Y-18572079D01*
X9277325Y-18533984D02*
X9277325Y-18572079D01*
X9572563Y-18810174D02*
X9563039Y-18800650D01*
X9563039Y-18800650D02*
X9543991Y-18772079D01*
X9543991Y-18772079D02*
X9534468Y-18753031D01*
X9534468Y-18753031D02*
X9524944Y-18724460D01*
X9524944Y-18724460D02*
X9515420Y-18676841D01*
X9515420Y-18676841D02*
X9515420Y-18638746D01*
X9515420Y-18638746D02*
X9524944Y-18591127D01*
X9524944Y-18591127D02*
X9534468Y-18562555D01*
X9534468Y-18562555D02*
X9543991Y-18543508D01*
X9543991Y-18543508D02*
X9563039Y-18514936D01*
X9563039Y-18514936D02*
X9572563Y-18505412D01*
X9639230Y-18553031D02*
X9648753Y-18543508D01*
X9648753Y-18543508D02*
X9667801Y-18533984D01*
X9667801Y-18533984D02*
X9715420Y-18533984D01*
X9715420Y-18533984D02*
X9734468Y-18543508D01*
X9734468Y-18543508D02*
X9743991Y-18553031D01*
X9743991Y-18553031D02*
X9753515Y-18572079D01*
X9753515Y-18572079D02*
X9753515Y-18591127D01*
X9753515Y-18591127D02*
X9743991Y-18619698D01*
X9743991Y-18619698D02*
X9629706Y-18733984D01*
X9629706Y-18733984D02*
X9753515Y-18733984D01*
X9991611Y-18733984D02*
X9991611Y-18533984D01*
X10077325Y-18733984D02*
X10077325Y-18629222D01*
X10077325Y-18629222D02*
X10067801Y-18610174D01*
X10067801Y-18610174D02*
X10048753Y-18600650D01*
X10048753Y-18600650D02*
X10020182Y-18600650D01*
X10020182Y-18600650D02*
X10001134Y-18610174D01*
X10001134Y-18610174D02*
X9991611Y-18619698D01*
X10201134Y-18733984D02*
X10182087Y-18724460D01*
X10182087Y-18724460D02*
X10172563Y-18714936D01*
X10172563Y-18714936D02*
X10163039Y-18695889D01*
X10163039Y-18695889D02*
X10163039Y-18638746D01*
X10163039Y-18638746D02*
X10172563Y-18619698D01*
X10172563Y-18619698D02*
X10182087Y-18610174D01*
X10182087Y-18610174D02*
X10201134Y-18600650D01*
X10201134Y-18600650D02*
X10229706Y-18600650D01*
X10229706Y-18600650D02*
X10248753Y-18610174D01*
X10248753Y-18610174D02*
X10258277Y-18619698D01*
X10258277Y-18619698D02*
X10267801Y-18638746D01*
X10267801Y-18638746D02*
X10267801Y-18695889D01*
X10267801Y-18695889D02*
X10258277Y-18714936D01*
X10258277Y-18714936D02*
X10248753Y-18724460D01*
X10248753Y-18724460D02*
X10229706Y-18733984D01*
X10229706Y-18733984D02*
X10201134Y-18733984D01*
X10382087Y-18733984D02*
X10363039Y-18724460D01*
X10363039Y-18724460D02*
X10353515Y-18705412D01*
X10353515Y-18705412D02*
X10353515Y-18533984D01*
X10534468Y-18724460D02*
X10515420Y-18733984D01*
X10515420Y-18733984D02*
X10477325Y-18733984D01*
X10477325Y-18733984D02*
X10458277Y-18724460D01*
X10458277Y-18724460D02*
X10448753Y-18705412D01*
X10448753Y-18705412D02*
X10448753Y-18629222D01*
X10448753Y-18629222D02*
X10458277Y-18610174D01*
X10458277Y-18610174D02*
X10477325Y-18600650D01*
X10477325Y-18600650D02*
X10515420Y-18600650D01*
X10515420Y-18600650D02*
X10534468Y-18610174D01*
X10534468Y-18610174D02*
X10543992Y-18629222D01*
X10543992Y-18629222D02*
X10543992Y-18648270D01*
X10543992Y-18648270D02*
X10448753Y-18667317D01*
X10620182Y-18724460D02*
X10639230Y-18733984D01*
X10639230Y-18733984D02*
X10677325Y-18733984D01*
X10677325Y-18733984D02*
X10696373Y-18724460D01*
X10696373Y-18724460D02*
X10705896Y-18705412D01*
X10705896Y-18705412D02*
X10705896Y-18695889D01*
X10705896Y-18695889D02*
X10696373Y-18676841D01*
X10696373Y-18676841D02*
X10677325Y-18667317D01*
X10677325Y-18667317D02*
X10648753Y-18667317D01*
X10648753Y-18667317D02*
X10629706Y-18657793D01*
X10629706Y-18657793D02*
X10620182Y-18638746D01*
X10620182Y-18638746D02*
X10620182Y-18629222D01*
X10620182Y-18629222D02*
X10629706Y-18610174D01*
X10629706Y-18610174D02*
X10648753Y-18600650D01*
X10648753Y-18600650D02*
X10677325Y-18600650D01*
X10677325Y-18600650D02*
X10696373Y-18610174D01*
X10772563Y-18810174D02*
X10782087Y-18800650D01*
X10782087Y-18800650D02*
X10801134Y-18772079D01*
X10801134Y-18772079D02*
X10810658Y-18753031D01*
X10810658Y-18753031D02*
X10820182Y-18724460D01*
X10820182Y-18724460D02*
X10829706Y-18676841D01*
X10829706Y-18676841D02*
X10829706Y-18638746D01*
X10829706Y-18638746D02*
X10820182Y-18591127D01*
X10820182Y-18591127D02*
X10810658Y-18562555D01*
X10810658Y-18562555D02*
X10801134Y-18543508D01*
X10801134Y-18543508D02*
X10782087Y-18514936D01*
X10782087Y-18514936D02*
X10772563Y-18505412D01*
X11134468Y-18810174D02*
X11124944Y-18800650D01*
X11124944Y-18800650D02*
X11105896Y-18772079D01*
X11105896Y-18772079D02*
X11096373Y-18753031D01*
X11096373Y-18753031D02*
X11086849Y-18724460D01*
X11086849Y-18724460D02*
X11077325Y-18676841D01*
X11077325Y-18676841D02*
X11077325Y-18638746D01*
X11077325Y-18638746D02*
X11086849Y-18591127D01*
X11086849Y-18591127D02*
X11096373Y-18562555D01*
X11096373Y-18562555D02*
X11105896Y-18543508D01*
X11105896Y-18543508D02*
X11124944Y-18514936D01*
X11124944Y-18514936D02*
X11134468Y-18505412D01*
X11210658Y-18600650D02*
X11210658Y-18733984D01*
X11210658Y-18619698D02*
X11220182Y-18610174D01*
X11220182Y-18610174D02*
X11239230Y-18600650D01*
X11239230Y-18600650D02*
X11267801Y-18600650D01*
X11267801Y-18600650D02*
X11286849Y-18610174D01*
X11286849Y-18610174D02*
X11296372Y-18629222D01*
X11296372Y-18629222D02*
X11296372Y-18733984D01*
X11420182Y-18733984D02*
X11401134Y-18724460D01*
X11401134Y-18724460D02*
X11391611Y-18714936D01*
X11391611Y-18714936D02*
X11382087Y-18695889D01*
X11382087Y-18695889D02*
X11382087Y-18638746D01*
X11382087Y-18638746D02*
X11391611Y-18619698D01*
X11391611Y-18619698D02*
X11401134Y-18610174D01*
X11401134Y-18610174D02*
X11420182Y-18600650D01*
X11420182Y-18600650D02*
X11448753Y-18600650D01*
X11448753Y-18600650D02*
X11467801Y-18610174D01*
X11467801Y-18610174D02*
X11477325Y-18619698D01*
X11477325Y-18619698D02*
X11486849Y-18638746D01*
X11486849Y-18638746D02*
X11486849Y-18695889D01*
X11486849Y-18695889D02*
X11477325Y-18714936D01*
X11477325Y-18714936D02*
X11467801Y-18724460D01*
X11467801Y-18724460D02*
X11448753Y-18733984D01*
X11448753Y-18733984D02*
X11420182Y-18733984D01*
X11543992Y-18600650D02*
X11620182Y-18600650D01*
X11572563Y-18533984D02*
X11572563Y-18705412D01*
X11572563Y-18705412D02*
X11582087Y-18724460D01*
X11582087Y-18724460D02*
X11601134Y-18733984D01*
X11601134Y-18733984D02*
X11620182Y-18733984D01*
X11839230Y-18600650D02*
X11839230Y-18800650D01*
X11839230Y-18610174D02*
X11858277Y-18600650D01*
X11858277Y-18600650D02*
X11896373Y-18600650D01*
X11896373Y-18600650D02*
X11915420Y-18610174D01*
X11915420Y-18610174D02*
X11924944Y-18619698D01*
X11924944Y-18619698D02*
X11934468Y-18638746D01*
X11934468Y-18638746D02*
X11934468Y-18695889D01*
X11934468Y-18695889D02*
X11924944Y-18714936D01*
X11924944Y-18714936D02*
X11915420Y-18724460D01*
X11915420Y-18724460D02*
X11896373Y-18733984D01*
X11896373Y-18733984D02*
X11858277Y-18733984D01*
X11858277Y-18733984D02*
X11839230Y-18724460D01*
X12048753Y-18733984D02*
X12029706Y-18724460D01*
X12029706Y-18724460D02*
X12020182Y-18705412D01*
X12020182Y-18705412D02*
X12020182Y-18533984D01*
X12210658Y-18733984D02*
X12210658Y-18629222D01*
X12210658Y-18629222D02*
X12201134Y-18610174D01*
X12201134Y-18610174D02*
X12182087Y-18600650D01*
X12182087Y-18600650D02*
X12143992Y-18600650D01*
X12143992Y-18600650D02*
X12124944Y-18610174D01*
X12210658Y-18724460D02*
X12191611Y-18733984D01*
X12191611Y-18733984D02*
X12143992Y-18733984D01*
X12143992Y-18733984D02*
X12124944Y-18724460D01*
X12124944Y-18724460D02*
X12115420Y-18705412D01*
X12115420Y-18705412D02*
X12115420Y-18686365D01*
X12115420Y-18686365D02*
X12124944Y-18667317D01*
X12124944Y-18667317D02*
X12143992Y-18657793D01*
X12143992Y-18657793D02*
X12191611Y-18657793D01*
X12191611Y-18657793D02*
X12210658Y-18648270D01*
X12277325Y-18600650D02*
X12353515Y-18600650D01*
X12305896Y-18533984D02*
X12305896Y-18705412D01*
X12305896Y-18705412D02*
X12315420Y-18724460D01*
X12315420Y-18724460D02*
X12334468Y-18733984D01*
X12334468Y-18733984D02*
X12353515Y-18733984D01*
X12496373Y-18724460D02*
X12477325Y-18733984D01*
X12477325Y-18733984D02*
X12439230Y-18733984D01*
X12439230Y-18733984D02*
X12420182Y-18724460D01*
X12420182Y-18724460D02*
X12410658Y-18705412D01*
X12410658Y-18705412D02*
X12410658Y-18629222D01*
X12410658Y-18629222D02*
X12420182Y-18610174D01*
X12420182Y-18610174D02*
X12439230Y-18600650D01*
X12439230Y-18600650D02*
X12477325Y-18600650D01*
X12477325Y-18600650D02*
X12496373Y-18610174D01*
X12496373Y-18610174D02*
X12505896Y-18629222D01*
X12505896Y-18629222D02*
X12505896Y-18648270D01*
X12505896Y-18648270D02*
X12410658Y-18667317D01*
X12677325Y-18733984D02*
X12677325Y-18533984D01*
X12677325Y-18724460D02*
X12658277Y-18733984D01*
X12658277Y-18733984D02*
X12620182Y-18733984D01*
X12620182Y-18733984D02*
X12601134Y-18724460D01*
X12601134Y-18724460D02*
X12591611Y-18714936D01*
X12591611Y-18714936D02*
X12582087Y-18695889D01*
X12582087Y-18695889D02*
X12582087Y-18638746D01*
X12582087Y-18638746D02*
X12591611Y-18619698D01*
X12591611Y-18619698D02*
X12601134Y-18610174D01*
X12601134Y-18610174D02*
X12620182Y-18600650D01*
X12620182Y-18600650D02*
X12658277Y-18600650D01*
X12658277Y-18600650D02*
X12677325Y-18610174D01*
X12753515Y-18810174D02*
X12763039Y-18800650D01*
X12763039Y-18800650D02*
X12782087Y-18772079D01*
X12782087Y-18772079D02*
X12791611Y-18753031D01*
X12791611Y-18753031D02*
X12801134Y-18724460D01*
X12801134Y-18724460D02*
X12810658Y-18676841D01*
X12810658Y-18676841D02*
X12810658Y-18638746D01*
X12810658Y-18638746D02*
X12801134Y-18591127D01*
X12801134Y-18591127D02*
X12791611Y-18562555D01*
X12791611Y-18562555D02*
X12782087Y-18543508D01*
X12782087Y-18543508D02*
X12763039Y-18514936D01*
X12763039Y-18514936D02*
X12753515Y-18505412D01*
X5997500Y-18906500D02*
G75*
G02*
X5797500Y-18906500I-100000J0D01*
G01*
X5797500Y-18906500D02*
G75*
G02*
X5997500Y-18906500I100000J0D01*
G01*
X6248753Y-18817031D02*
X6258277Y-18807508D01*
X6258277Y-18807508D02*
X6277324Y-18797984D01*
X6277324Y-18797984D02*
X6324943Y-18797984D01*
X6324943Y-18797984D02*
X6343991Y-18807508D01*
X6343991Y-18807508D02*
X6353515Y-18817031D01*
X6353515Y-18817031D02*
X6363039Y-18836079D01*
X6363039Y-18836079D02*
X6363039Y-18855127D01*
X6363039Y-18855127D02*
X6353515Y-18883698D01*
X6353515Y-18883698D02*
X6239229Y-18997984D01*
X6239229Y-18997984D02*
X6363039Y-18997984D01*
X6448753Y-18978936D02*
X6458277Y-18988460D01*
X6458277Y-18988460D02*
X6448753Y-18997984D01*
X6448753Y-18997984D02*
X6439229Y-18988460D01*
X6439229Y-18988460D02*
X6448753Y-18978936D01*
X6448753Y-18978936D02*
X6448753Y-18997984D01*
X6639229Y-18797984D02*
X6543991Y-18797984D01*
X6543991Y-18797984D02*
X6534467Y-18893222D01*
X6534467Y-18893222D02*
X6543991Y-18883698D01*
X6543991Y-18883698D02*
X6563039Y-18874174D01*
X6563039Y-18874174D02*
X6610658Y-18874174D01*
X6610658Y-18874174D02*
X6629705Y-18883698D01*
X6629705Y-18883698D02*
X6639229Y-18893222D01*
X6639229Y-18893222D02*
X6648753Y-18912270D01*
X6648753Y-18912270D02*
X6648753Y-18959889D01*
X6648753Y-18959889D02*
X6639229Y-18978936D01*
X6639229Y-18978936D02*
X6629705Y-18988460D01*
X6629705Y-18988460D02*
X6610658Y-18997984D01*
X6610658Y-18997984D02*
X6563039Y-18997984D01*
X6563039Y-18997984D02*
X6543991Y-18988460D01*
X6543991Y-18988460D02*
X6534467Y-18978936D01*
X6772562Y-18797984D02*
X6791610Y-18797984D01*
X6791610Y-18797984D02*
X6810658Y-18807508D01*
X6810658Y-18807508D02*
X6820182Y-18817031D01*
X6820182Y-18817031D02*
X6829705Y-18836079D01*
X6829705Y-18836079D02*
X6839229Y-18874174D01*
X6839229Y-18874174D02*
X6839229Y-18921793D01*
X6839229Y-18921793D02*
X6829705Y-18959889D01*
X6829705Y-18959889D02*
X6820182Y-18978936D01*
X6820182Y-18978936D02*
X6810658Y-18988460D01*
X6810658Y-18988460D02*
X6791610Y-18997984D01*
X6791610Y-18997984D02*
X6772562Y-18997984D01*
X6772562Y-18997984D02*
X6753515Y-18988460D01*
X6753515Y-18988460D02*
X6743991Y-18978936D01*
X6743991Y-18978936D02*
X6734467Y-18959889D01*
X6734467Y-18959889D02*
X6724943Y-18921793D01*
X6724943Y-18921793D02*
X6724943Y-18874174D01*
X6724943Y-18874174D02*
X6734467Y-18836079D01*
X6734467Y-18836079D02*
X6743991Y-18817031D01*
X6743991Y-18817031D02*
X6753515Y-18807508D01*
X6753515Y-18807508D02*
X6772562Y-18797984D01*
X6963039Y-18797984D02*
X6982086Y-18797984D01*
X6982086Y-18797984D02*
X7001134Y-18807508D01*
X7001134Y-18807508D02*
X7010658Y-18817031D01*
X7010658Y-18817031D02*
X7020182Y-18836079D01*
X7020182Y-18836079D02*
X7029705Y-18874174D01*
X7029705Y-18874174D02*
X7029705Y-18921793D01*
X7029705Y-18921793D02*
X7020182Y-18959889D01*
X7020182Y-18959889D02*
X7010658Y-18978936D01*
X7010658Y-18978936D02*
X7001134Y-18988460D01*
X7001134Y-18988460D02*
X6982086Y-18997984D01*
X6982086Y-18997984D02*
X6963039Y-18997984D01*
X6963039Y-18997984D02*
X6943991Y-18988460D01*
X6943991Y-18988460D02*
X6934467Y-18978936D01*
X6934467Y-18978936D02*
X6924943Y-18959889D01*
X6924943Y-18959889D02*
X6915420Y-18921793D01*
X6915420Y-18921793D02*
X6915420Y-18874174D01*
X6915420Y-18874174D02*
X6924943Y-18836079D01*
X6924943Y-18836079D02*
X6934467Y-18817031D01*
X6934467Y-18817031D02*
X6943991Y-18807508D01*
X6943991Y-18807508D02*
X6963039Y-18797984D01*
X7115420Y-18997984D02*
X7115420Y-18864650D01*
X7115420Y-18883698D02*
X7124943Y-18874174D01*
X7124943Y-18874174D02*
X7143991Y-18864650D01*
X7143991Y-18864650D02*
X7172563Y-18864650D01*
X7172563Y-18864650D02*
X7191610Y-18874174D01*
X7191610Y-18874174D02*
X7201134Y-18893222D01*
X7201134Y-18893222D02*
X7201134Y-18997984D01*
X7201134Y-18893222D02*
X7210658Y-18874174D01*
X7210658Y-18874174D02*
X7229705Y-18864650D01*
X7229705Y-18864650D02*
X7258277Y-18864650D01*
X7258277Y-18864650D02*
X7277324Y-18874174D01*
X7277324Y-18874174D02*
X7286848Y-18893222D01*
X7286848Y-18893222D02*
X7286848Y-18997984D01*
X7382086Y-18997984D02*
X7382086Y-18864650D01*
X7382086Y-18883698D02*
X7391610Y-18874174D01*
X7391610Y-18874174D02*
X7410658Y-18864650D01*
X7410658Y-18864650D02*
X7439229Y-18864650D01*
X7439229Y-18864650D02*
X7458277Y-18874174D01*
X7458277Y-18874174D02*
X7467801Y-18893222D01*
X7467801Y-18893222D02*
X7467801Y-18997984D01*
X7467801Y-18893222D02*
X7477324Y-18874174D01*
X7477324Y-18874174D02*
X7496372Y-18864650D01*
X7496372Y-18864650D02*
X7524943Y-18864650D01*
X7524943Y-18864650D02*
X7543991Y-18874174D01*
X7543991Y-18874174D02*
X7553515Y-18893222D01*
X7553515Y-18893222D02*
X7553515Y-18997984D01*
X7943991Y-18788460D02*
X7772563Y-19045603D01*
X8201134Y-18797984D02*
X8220182Y-18797984D01*
X8220182Y-18797984D02*
X8239229Y-18807508D01*
X8239229Y-18807508D02*
X8248753Y-18817031D01*
X8248753Y-18817031D02*
X8258277Y-18836079D01*
X8258277Y-18836079D02*
X8267801Y-18874174D01*
X8267801Y-18874174D02*
X8267801Y-18921793D01*
X8267801Y-18921793D02*
X8258277Y-18959889D01*
X8258277Y-18959889D02*
X8248753Y-18978936D01*
X8248753Y-18978936D02*
X8239229Y-18988460D01*
X8239229Y-18988460D02*
X8220182Y-18997984D01*
X8220182Y-18997984D02*
X8201134Y-18997984D01*
X8201134Y-18997984D02*
X8182086Y-18988460D01*
X8182086Y-18988460D02*
X8172563Y-18978936D01*
X8172563Y-18978936D02*
X8163039Y-18959889D01*
X8163039Y-18959889D02*
X8153515Y-18921793D01*
X8153515Y-18921793D02*
X8153515Y-18874174D01*
X8153515Y-18874174D02*
X8163039Y-18836079D01*
X8163039Y-18836079D02*
X8172563Y-18817031D01*
X8172563Y-18817031D02*
X8182086Y-18807508D01*
X8182086Y-18807508D02*
X8201134Y-18797984D01*
X8353515Y-18978936D02*
X8363039Y-18988460D01*
X8363039Y-18988460D02*
X8353515Y-18997984D01*
X8353515Y-18997984D02*
X8343991Y-18988460D01*
X8343991Y-18988460D02*
X8353515Y-18978936D01*
X8353515Y-18978936D02*
X8353515Y-18997984D01*
X8486848Y-18797984D02*
X8505896Y-18797984D01*
X8505896Y-18797984D02*
X8524944Y-18807508D01*
X8524944Y-18807508D02*
X8534468Y-18817031D01*
X8534468Y-18817031D02*
X8543991Y-18836079D01*
X8543991Y-18836079D02*
X8553515Y-18874174D01*
X8553515Y-18874174D02*
X8553515Y-18921793D01*
X8553515Y-18921793D02*
X8543991Y-18959889D01*
X8543991Y-18959889D02*
X8534468Y-18978936D01*
X8534468Y-18978936D02*
X8524944Y-18988460D01*
X8524944Y-18988460D02*
X8505896Y-18997984D01*
X8505896Y-18997984D02*
X8486848Y-18997984D01*
X8486848Y-18997984D02*
X8467801Y-18988460D01*
X8467801Y-18988460D02*
X8458277Y-18978936D01*
X8458277Y-18978936D02*
X8448753Y-18959889D01*
X8448753Y-18959889D02*
X8439229Y-18921793D01*
X8439229Y-18921793D02*
X8439229Y-18874174D01*
X8439229Y-18874174D02*
X8448753Y-18836079D01*
X8448753Y-18836079D02*
X8458277Y-18817031D01*
X8458277Y-18817031D02*
X8467801Y-18807508D01*
X8467801Y-18807508D02*
X8486848Y-18797984D01*
X8648753Y-18997984D02*
X8686848Y-18997984D01*
X8686848Y-18997984D02*
X8705896Y-18988460D01*
X8705896Y-18988460D02*
X8715420Y-18978936D01*
X8715420Y-18978936D02*
X8734468Y-18950365D01*
X8734468Y-18950365D02*
X8743991Y-18912270D01*
X8743991Y-18912270D02*
X8743991Y-18836079D01*
X8743991Y-18836079D02*
X8734468Y-18817031D01*
X8734468Y-18817031D02*
X8724944Y-18807508D01*
X8724944Y-18807508D02*
X8705896Y-18797984D01*
X8705896Y-18797984D02*
X8667801Y-18797984D01*
X8667801Y-18797984D02*
X8648753Y-18807508D01*
X8648753Y-18807508D02*
X8639229Y-18817031D01*
X8639229Y-18817031D02*
X8629706Y-18836079D01*
X8629706Y-18836079D02*
X8629706Y-18883698D01*
X8629706Y-18883698D02*
X8639229Y-18902746D01*
X8639229Y-18902746D02*
X8648753Y-18912270D01*
X8648753Y-18912270D02*
X8667801Y-18921793D01*
X8667801Y-18921793D02*
X8705896Y-18921793D01*
X8705896Y-18921793D02*
X8724944Y-18912270D01*
X8724944Y-18912270D02*
X8734468Y-18902746D01*
X8734468Y-18902746D02*
X8743991Y-18883698D01*
X8858277Y-18883698D02*
X8839229Y-18874174D01*
X8839229Y-18874174D02*
X8829706Y-18864650D01*
X8829706Y-18864650D02*
X8820182Y-18845603D01*
X8820182Y-18845603D02*
X8820182Y-18836079D01*
X8820182Y-18836079D02*
X8829706Y-18817031D01*
X8829706Y-18817031D02*
X8839229Y-18807508D01*
X8839229Y-18807508D02*
X8858277Y-18797984D01*
X8858277Y-18797984D02*
X8896372Y-18797984D01*
X8896372Y-18797984D02*
X8915420Y-18807508D01*
X8915420Y-18807508D02*
X8924944Y-18817031D01*
X8924944Y-18817031D02*
X8934468Y-18836079D01*
X8934468Y-18836079D02*
X8934468Y-18845603D01*
X8934468Y-18845603D02*
X8924944Y-18864650D01*
X8924944Y-18864650D02*
X8915420Y-18874174D01*
X8915420Y-18874174D02*
X8896372Y-18883698D01*
X8896372Y-18883698D02*
X8858277Y-18883698D01*
X8858277Y-18883698D02*
X8839229Y-18893222D01*
X8839229Y-18893222D02*
X8829706Y-18902746D01*
X8829706Y-18902746D02*
X8820182Y-18921793D01*
X8820182Y-18921793D02*
X8820182Y-18959889D01*
X8820182Y-18959889D02*
X8829706Y-18978936D01*
X8829706Y-18978936D02*
X8839229Y-18988460D01*
X8839229Y-18988460D02*
X8858277Y-18997984D01*
X8858277Y-18997984D02*
X8896372Y-18997984D01*
X8896372Y-18997984D02*
X8915420Y-18988460D01*
X8915420Y-18988460D02*
X8924944Y-18978936D01*
X8924944Y-18978936D02*
X8934468Y-18959889D01*
X8934468Y-18959889D02*
X8934468Y-18921793D01*
X8934468Y-18921793D02*
X8924944Y-18902746D01*
X8924944Y-18902746D02*
X8915420Y-18893222D01*
X8915420Y-18893222D02*
X8896372Y-18883698D01*
X9105896Y-18864650D02*
X9105896Y-18997984D01*
X9058277Y-18788460D02*
X9010658Y-18931317D01*
X9010658Y-18931317D02*
X9134468Y-18931317D01*
X9201134Y-18797984D02*
X9201134Y-18836079D01*
X9277325Y-18797984D02*
X9277325Y-18836079D01*
X9572563Y-19074174D02*
X9563039Y-19064650D01*
X9563039Y-19064650D02*
X9543991Y-19036079D01*
X9543991Y-19036079D02*
X9534468Y-19017031D01*
X9534468Y-19017031D02*
X9524944Y-18988460D01*
X9524944Y-18988460D02*
X9515420Y-18940841D01*
X9515420Y-18940841D02*
X9515420Y-18902746D01*
X9515420Y-18902746D02*
X9524944Y-18855127D01*
X9524944Y-18855127D02*
X9534468Y-18826555D01*
X9534468Y-18826555D02*
X9543991Y-18807508D01*
X9543991Y-18807508D02*
X9563039Y-18778936D01*
X9563039Y-18778936D02*
X9572563Y-18769412D01*
X9734468Y-18864650D02*
X9734468Y-18997984D01*
X9686849Y-18788460D02*
X9639230Y-18931317D01*
X9639230Y-18931317D02*
X9763039Y-18931317D01*
X9991611Y-18997984D02*
X9991611Y-18797984D01*
X10077325Y-18997984D02*
X10077325Y-18893222D01*
X10077325Y-18893222D02*
X10067801Y-18874174D01*
X10067801Y-18874174D02*
X10048753Y-18864650D01*
X10048753Y-18864650D02*
X10020182Y-18864650D01*
X10020182Y-18864650D02*
X10001134Y-18874174D01*
X10001134Y-18874174D02*
X9991611Y-18883698D01*
X10201134Y-18997984D02*
X10182087Y-18988460D01*
X10182087Y-18988460D02*
X10172563Y-18978936D01*
X10172563Y-18978936D02*
X10163039Y-18959889D01*
X10163039Y-18959889D02*
X10163039Y-18902746D01*
X10163039Y-18902746D02*
X10172563Y-18883698D01*
X10172563Y-18883698D02*
X10182087Y-18874174D01*
X10182087Y-18874174D02*
X10201134Y-18864650D01*
X10201134Y-18864650D02*
X10229706Y-18864650D01*
X10229706Y-18864650D02*
X10248753Y-18874174D01*
X10248753Y-18874174D02*
X10258277Y-18883698D01*
X10258277Y-18883698D02*
X10267801Y-18902746D01*
X10267801Y-18902746D02*
X10267801Y-18959889D01*
X10267801Y-18959889D02*
X10258277Y-18978936D01*
X10258277Y-18978936D02*
X10248753Y-18988460D01*
X10248753Y-18988460D02*
X10229706Y-18997984D01*
X10229706Y-18997984D02*
X10201134Y-18997984D01*
X10382087Y-18997984D02*
X10363039Y-18988460D01*
X10363039Y-18988460D02*
X10353515Y-18969412D01*
X10353515Y-18969412D02*
X10353515Y-18797984D01*
X10534468Y-18988460D02*
X10515420Y-18997984D01*
X10515420Y-18997984D02*
X10477325Y-18997984D01*
X10477325Y-18997984D02*
X10458277Y-18988460D01*
X10458277Y-18988460D02*
X10448753Y-18969412D01*
X10448753Y-18969412D02*
X10448753Y-18893222D01*
X10448753Y-18893222D02*
X10458277Y-18874174D01*
X10458277Y-18874174D02*
X10477325Y-18864650D01*
X10477325Y-18864650D02*
X10515420Y-18864650D01*
X10515420Y-18864650D02*
X10534468Y-18874174D01*
X10534468Y-18874174D02*
X10543992Y-18893222D01*
X10543992Y-18893222D02*
X10543992Y-18912270D01*
X10543992Y-18912270D02*
X10448753Y-18931317D01*
X10620182Y-18988460D02*
X10639230Y-18997984D01*
X10639230Y-18997984D02*
X10677325Y-18997984D01*
X10677325Y-18997984D02*
X10696373Y-18988460D01*
X10696373Y-18988460D02*
X10705896Y-18969412D01*
X10705896Y-18969412D02*
X10705896Y-18959889D01*
X10705896Y-18959889D02*
X10696373Y-18940841D01*
X10696373Y-18940841D02*
X10677325Y-18931317D01*
X10677325Y-18931317D02*
X10648753Y-18931317D01*
X10648753Y-18931317D02*
X10629706Y-18921793D01*
X10629706Y-18921793D02*
X10620182Y-18902746D01*
X10620182Y-18902746D02*
X10620182Y-18893222D01*
X10620182Y-18893222D02*
X10629706Y-18874174D01*
X10629706Y-18874174D02*
X10648753Y-18864650D01*
X10648753Y-18864650D02*
X10677325Y-18864650D01*
X10677325Y-18864650D02*
X10696373Y-18874174D01*
X10772563Y-19074174D02*
X10782087Y-19064650D01*
X10782087Y-19064650D02*
X10801134Y-19036079D01*
X10801134Y-19036079D02*
X10810658Y-19017031D01*
X10810658Y-19017031D02*
X10820182Y-18988460D01*
X10820182Y-18988460D02*
X10829706Y-18940841D01*
X10829706Y-18940841D02*
X10829706Y-18902746D01*
X10829706Y-18902746D02*
X10820182Y-18855127D01*
X10820182Y-18855127D02*
X10810658Y-18826555D01*
X10810658Y-18826555D02*
X10801134Y-18807508D01*
X10801134Y-18807508D02*
X10782087Y-18778936D01*
X10782087Y-18778936D02*
X10772563Y-18769412D01*
X11134468Y-19074174D02*
X11124944Y-19064650D01*
X11124944Y-19064650D02*
X11105896Y-19036079D01*
X11105896Y-19036079D02*
X11096373Y-19017031D01*
X11096373Y-19017031D02*
X11086849Y-18988460D01*
X11086849Y-18988460D02*
X11077325Y-18940841D01*
X11077325Y-18940841D02*
X11077325Y-18902746D01*
X11077325Y-18902746D02*
X11086849Y-18855127D01*
X11086849Y-18855127D02*
X11096373Y-18826555D01*
X11096373Y-18826555D02*
X11105896Y-18807508D01*
X11105896Y-18807508D02*
X11124944Y-18778936D01*
X11124944Y-18778936D02*
X11134468Y-18769412D01*
X11210658Y-18864650D02*
X11210658Y-18997984D01*
X11210658Y-18883698D02*
X11220182Y-18874174D01*
X11220182Y-18874174D02*
X11239230Y-18864650D01*
X11239230Y-18864650D02*
X11267801Y-18864650D01*
X11267801Y-18864650D02*
X11286849Y-18874174D01*
X11286849Y-18874174D02*
X11296372Y-18893222D01*
X11296372Y-18893222D02*
X11296372Y-18997984D01*
X11420182Y-18997984D02*
X11401134Y-18988460D01*
X11401134Y-18988460D02*
X11391611Y-18978936D01*
X11391611Y-18978936D02*
X11382087Y-18959889D01*
X11382087Y-18959889D02*
X11382087Y-18902746D01*
X11382087Y-18902746D02*
X11391611Y-18883698D01*
X11391611Y-18883698D02*
X11401134Y-18874174D01*
X11401134Y-18874174D02*
X11420182Y-18864650D01*
X11420182Y-18864650D02*
X11448753Y-18864650D01*
X11448753Y-18864650D02*
X11467801Y-18874174D01*
X11467801Y-18874174D02*
X11477325Y-18883698D01*
X11477325Y-18883698D02*
X11486849Y-18902746D01*
X11486849Y-18902746D02*
X11486849Y-18959889D01*
X11486849Y-18959889D02*
X11477325Y-18978936D01*
X11477325Y-18978936D02*
X11467801Y-18988460D01*
X11467801Y-18988460D02*
X11448753Y-18997984D01*
X11448753Y-18997984D02*
X11420182Y-18997984D01*
X11543992Y-18864650D02*
X11620182Y-18864650D01*
X11572563Y-18797984D02*
X11572563Y-18969412D01*
X11572563Y-18969412D02*
X11582087Y-18988460D01*
X11582087Y-18988460D02*
X11601134Y-18997984D01*
X11601134Y-18997984D02*
X11620182Y-18997984D01*
X11839230Y-18864650D02*
X11839230Y-19064650D01*
X11839230Y-18874174D02*
X11858277Y-18864650D01*
X11858277Y-18864650D02*
X11896373Y-18864650D01*
X11896373Y-18864650D02*
X11915420Y-18874174D01*
X11915420Y-18874174D02*
X11924944Y-18883698D01*
X11924944Y-18883698D02*
X11934468Y-18902746D01*
X11934468Y-18902746D02*
X11934468Y-18959889D01*
X11934468Y-18959889D02*
X11924944Y-18978936D01*
X11924944Y-18978936D02*
X11915420Y-18988460D01*
X11915420Y-18988460D02*
X11896373Y-18997984D01*
X11896373Y-18997984D02*
X11858277Y-18997984D01*
X11858277Y-18997984D02*
X11839230Y-18988460D01*
X12048753Y-18997984D02*
X12029706Y-18988460D01*
X12029706Y-18988460D02*
X12020182Y-18969412D01*
X12020182Y-18969412D02*
X12020182Y-18797984D01*
X12210658Y-18997984D02*
X12210658Y-18893222D01*
X12210658Y-18893222D02*
X12201134Y-18874174D01*
X12201134Y-18874174D02*
X12182087Y-18864650D01*
X12182087Y-18864650D02*
X12143992Y-18864650D01*
X12143992Y-18864650D02*
X12124944Y-18874174D01*
X12210658Y-18988460D02*
X12191611Y-18997984D01*
X12191611Y-18997984D02*
X12143992Y-18997984D01*
X12143992Y-18997984D02*
X12124944Y-18988460D01*
X12124944Y-18988460D02*
X12115420Y-18969412D01*
X12115420Y-18969412D02*
X12115420Y-18950365D01*
X12115420Y-18950365D02*
X12124944Y-18931317D01*
X12124944Y-18931317D02*
X12143992Y-18921793D01*
X12143992Y-18921793D02*
X12191611Y-18921793D01*
X12191611Y-18921793D02*
X12210658Y-18912270D01*
X12277325Y-18864650D02*
X12353515Y-18864650D01*
X12305896Y-18797984D02*
X12305896Y-18969412D01*
X12305896Y-18969412D02*
X12315420Y-18988460D01*
X12315420Y-18988460D02*
X12334468Y-18997984D01*
X12334468Y-18997984D02*
X12353515Y-18997984D01*
X12496373Y-18988460D02*
X12477325Y-18997984D01*
X12477325Y-18997984D02*
X12439230Y-18997984D01*
X12439230Y-18997984D02*
X12420182Y-18988460D01*
X12420182Y-18988460D02*
X12410658Y-18969412D01*
X12410658Y-18969412D02*
X12410658Y-18893222D01*
X12410658Y-18893222D02*
X12420182Y-18874174D01*
X12420182Y-18874174D02*
X12439230Y-18864650D01*
X12439230Y-18864650D02*
X12477325Y-18864650D01*
X12477325Y-18864650D02*
X12496373Y-18874174D01*
X12496373Y-18874174D02*
X12505896Y-18893222D01*
X12505896Y-18893222D02*
X12505896Y-18912270D01*
X12505896Y-18912270D02*
X12410658Y-18931317D01*
X12677325Y-18997984D02*
X12677325Y-18797984D01*
X12677325Y-18988460D02*
X12658277Y-18997984D01*
X12658277Y-18997984D02*
X12620182Y-18997984D01*
X12620182Y-18997984D02*
X12601134Y-18988460D01*
X12601134Y-18988460D02*
X12591611Y-18978936D01*
X12591611Y-18978936D02*
X12582087Y-18959889D01*
X12582087Y-18959889D02*
X12582087Y-18902746D01*
X12582087Y-18902746D02*
X12591611Y-18883698D01*
X12591611Y-18883698D02*
X12601134Y-18874174D01*
X12601134Y-18874174D02*
X12620182Y-18864650D01*
X12620182Y-18864650D02*
X12658277Y-18864650D01*
X12658277Y-18864650D02*
X12677325Y-18874174D01*
X12753515Y-19074174D02*
X12763039Y-19064650D01*
X12763039Y-19064650D02*
X12782087Y-19036079D01*
X12782087Y-19036079D02*
X12791611Y-19017031D01*
X12791611Y-19017031D02*
X12801134Y-18988460D01*
X12801134Y-18988460D02*
X12810658Y-18940841D01*
X12810658Y-18940841D02*
X12810658Y-18902746D01*
X12810658Y-18902746D02*
X12801134Y-18855127D01*
X12801134Y-18855127D02*
X12791611Y-18826555D01*
X12791611Y-18826555D02*
X12782087Y-18807508D01*
X12782087Y-18807508D02*
X12763039Y-18778936D01*
X12763039Y-18778936D02*
X12753515Y-18769412D01*
M02*
